<?xml version="1.0" encoding="utf-8"?>
<!-- Generator: Adobe Illustrator 25.2.1, SVG Export Plug-In . SVG Version: 6.00 Build 0)  -->
<svg version="1.0" id="Layer_1" xmlns="http://www.w3.org/2000/svg" xmlns:xlink="http://www.w3.org/1999/xlink" x="0px" y="0px"
	 viewBox="0 0 20 20" enable-background="new 0 0 20 20" xml:space="preserve">
<g>
	<circle fill="#5A5A5A" cx="10" cy="10" r="10"/>
	<g>
		<path fill="#FFFFFF" d="M17.6,6.7c0,0.8-0.4,1.4-1,2v3.9c0,0.6-0.5,1.1-1.1,1.1h-1.3c0.8-0.9,1.4-2.1,1.1-3.7
			c-0.7-3.2-3.2-3.5-4.5-3.7c-0.3,0-0.9-0.1-1-0.2c-0.5-0.4-0.9-0.8-1.2-1c0.9-0.9,2.4-1.5,4.2-1.5C15.4,3.4,17.6,4.9,17.6,6.7z"/>
		<path fill="#FFFFFF" d="M13.7,10.3c-0.8-3.4-3.8-1.9-5.1-3.1C7.4,5.9,7,5.8,5.6,5.8c-1.1,0-1.8,0.4-2,0.6C2.4,7.7,2.4,8.5,2.4,9
			c-0.1,1.8,1.5,2.8,1.5,3.9c0,1.5,0.7,3.6,2.8,3.9c3.2,0.5,4.3-2.3,4.8-2.9C12,13.4,14.2,12.2,13.7,10.3z M7.1,12.8
			c-1.3,0-2.3-1-2.3-2.3c0-1.3,1-2.3,2.3-2.3c1.3,0,2.3,1,2.3,2.3C9.4,11.8,8.3,12.8,7.1,12.8z"/>
		<path fill="#FFFFFF" d="M6,10.4C5.9,10.4,5.9,10.4,6,10.4c-0.2-0.1-0.3-0.2-0.3-0.4C5.8,9.7,6,9.4,6.3,9.3C6.6,9.1,7,9,7.3,9.1
			c0.2,0,0.3,0.2,0.2,0.4c0,0.2-0.2,0.3-0.4,0.2C7,9.7,6.8,9.7,6.6,9.8C6.4,9.9,6.3,10,6.3,10.2C6.2,10.4,6.1,10.4,6,10.4z"/>
	</g>
</g>
</svg>
