<?xml version="1.0" encoding="utf-8"?>
<!-- Generator: Adobe Illustrator 25.2.1, SVG Export Plug-In . SVG Version: 6.00 Build 0)  -->
<svg version="1.0" id="Layer_1" xmlns="http://www.w3.org/2000/svg" xmlns:xlink="http://www.w3.org/1999/xlink" x="0px" y="0px"
	 viewBox="0 0 20 20" enable-background="new 0 0 20 20" xml:space="preserve">
<g>
	<circle fill="#58595B" cx="10" cy="10" r="10"/>
	<g>
		<path fill="#FFFFFF" d="M14.8,11.7c-0.1,1.1-0.6,2-1.4,2.6c-0.8,0.6-2,0.9-3.3,0.9c-1.5,0-2.7-0.4-3.6-1.3
			c-0.9-0.9-1.3-2.1-1.3-3.6V9.7c0-1,0.2-1.9,0.6-2.6c0.4-0.8,1-1.3,1.7-1.7c0.7-0.4,1.6-0.6,2.6-0.6c1.4,0,2.5,0.3,3.3,0.9
			c0.8,0.6,1.3,1.5,1.4,2.7h-2.4c-0.1-0.7-0.3-1.1-0.6-1.4c-0.4-0.3-0.9-0.4-1.7-0.4c-0.8,0-1.4,0.3-1.8,0.8
			C7.9,7.7,7.7,8.5,7.7,9.6v0.8c0,1.1,0.2,1.9,0.6,2.4c0.4,0.5,1,0.8,1.8,0.8c0.7,0,1.3-0.1,1.7-0.4c0.4-0.3,0.6-0.8,0.6-1.4H14.8z"
			/>
	</g>
</g>
</svg>
