<?xml version="1.0" encoding="utf-8"?>
<!-- Generator: Adobe Illustrator 28.4.1, SVG Export Plug-In . SVG Version: 6.00 Build 0)  -->
<svg version="1.0" id="Layer_1" xmlns="http://www.w3.org/2000/svg" xmlns:xlink="http://www.w3.org/1999/xlink" x="0px" y="0px"
	 viewBox="0 0 20 20" enable-background="new 0 0 20 20" xml:space="preserve">
<g>
	<circle fill="#58595B" cx="10" cy="10" r="10"/>
</g>
<g>
	<g>
		<g>
			<path fill="#FFFFFF" d="M5.6,9.6C5.5,9.8,5.4,9.9,5.3,10c-0.4,0.4-0.7,0.8-0.8,1.1c0,0.1-0.1,0.2-0.1,0.3
				c-0.1,0.2-0.1,0.4-0.1,0.7c0,0.1,0,0.1,0,0.2C4.1,12.6,4,13,4,13.4c0,0.3,0,0.6,0.1,0.9c0,0,0,0,0,0c-0.6-0.5-0.9-1-1-1.6
				c0-0.1,0-0.1,0-0.2C3,11.5,3.3,10.6,4,9.8v0C4,9.7,4.1,9.6,4.2,9.5c0-0.4,0.1-0.9,0.2-1.3c0.1-0.1,0.3-0.1,0.5,0
				c0,0.5,0.2,0.9,0.5,1.3L5.6,9.6z"/>
			<path fill="#FFFFFF" d="M18.5,11.6v1.2h-0.5v0.2c0,0.6-0.4,1.1-1,1.2c0.1-0.2,0.1-0.5,0.1-0.7c0-0.4-0.1-0.8-0.3-1.2v-0.5
				c0-1.1-0.8-2-1.8-2.2c-0.1,0-0.3,0-0.4,0h-0.8c0-0.4-0.1-0.8-0.3-1.2c-0.6-1.6-2.2-2.7-4-2.7c-0.2,0-0.3,0-0.5,0
				C8.8,5.3,8.4,5.1,7.9,5.1c-0.2,0-0.5,0-0.7,0.1C7.1,5.2,7,5.2,6.9,5.1c0.8-0.5,1.7-0.7,2.7-0.7c2.5,0,4.6,1.6,5.2,3.9
				c1.8,0.1,3.2,1.5,3.2,3.3H18.5z"/>
			<path fill="#FFFFFF" d="M7,15.6c-1.2,0-2.2-1-2.2-2.2c0-1.2,1-2.2,2.2-2.2s2.2,1,2.2,2.2C9.2,14.6,8.2,15.6,7,15.6z M7,12.4
				c-0.5,0-1,0.4-1,1c0,0.5,0.4,1,1,1s1-0.4,1-1C7.9,12.8,7.5,12.4,7,12.4z"/>
			<path fill="#FFFFFF" d="M14.3,15.6c-1.2,0-2.2-1-2.2-2.2c0-1.2,1-2.2,2.2-2.2c1.2,0,2.2,1,2.2,2.2C16.5,14.6,15.5,15.6,14.3,15.6
				z M14.3,12.4c-0.5,0-1,0.4-1,1c0,0.5,0.4,1,1,1c0.5,0,1-0.4,1-1C15.2,12.8,14.8,12.4,14.3,12.4z"/>
			<path fill="#FFFFFF" d="M9.8,14c0-0.2,0.1-0.4,0.1-0.6c0-0.2,0-0.3,0-0.5h1.5c0,0.2,0,0.3,0,0.5c0,0.2,0,0.4,0.1,0.6H9.8z"/>
			<path fill="#FFFFFF" d="M8.7,8.3L8.1,8.9L9.2,10l-0.5,0.5L7.6,9.4L7.3,9.7L6.3,8.6C6,8.4,6,7.9,6.3,7.7l0.1-0.1
				C6.3,7.5,6.2,7.5,6.1,7.4C5.3,6.9,4.5,6.9,3.7,7.2c-0.3,0.1-1.2,0.6-1,2.2c-0.4,0.6-0.7,1.3-0.8,2c-0.3-0.7-0.8-2.2-0.3-3.6
				c0.3-0.8,0.8-1.4,1.5-1.7c1.6-0.8,3.1-0.2,4.1,0.6l0.2-0.2c0.3-0.3,0.7-0.3,1,0l1.1,1.1L9.2,7.9l1.1,1.1L9.8,9.4L8.7,8.3z"/>
		</g>
	</g>
</g>
</svg>
