<?xml version="1.0" encoding="utf-8"?>
<!-- Generator: Adobe Illustrator 25.2.1, SVG Export Plug-In . SVG Version: 6.00 Build 0)  -->
<svg version="1.0" id="Layer_1" xmlns="http://www.w3.org/2000/svg" xmlns:xlink="http://www.w3.org/1999/xlink" x="0px" y="0px"
	 viewBox="0 0 20 20" enable-background="new 0 0 20 20" xml:space="preserve">
<g>
	<circle fill="#5A5A5A" cx="10" cy="10" r="10"/>
	<g>
		<path fill="#FFFFFF" d="M16.3,15.3c-0.1,0.1-0.2,0.1-0.4,0.1c-0.2,0-0.5-0.1-0.6-0.3l-2.1-3.5H9c-0.3,0-0.6-0.2-0.7-0.6L8,6.8
			c-0.1-0.4,0.4-1,0.9-1.1C9.4,5.6,10,6,10,6.4l0.1,0.9h2.5c0.3,0,0.6,0.3,0.6,0.6c0,0.3-0.3,0.6-0.6,0.6h-2.5l0.1,1.5h3.4
			c0.5,0,0.6,0.3,0.7,0.6l2.3,3.8C16.7,14.7,16.6,15.1,16.3,15.3z"/>
		<circle fill="#FFFFFF" cx="8.7" cy="4" r="1.4"/>
	</g>
	<path fill="#FFFFFF" d="M8.5,16.6C8.5,16.6,8.4,16.6,8.5,16.6c-1.3,0-2.5-0.5-3.4-1.4c-0.9-0.9-1.4-2.1-1.4-3.4
		c0-1.8,1-3.4,2.7-4.3c0.3-0.1,0.6,0,0.7,0.2c0.1,0.3,0,0.6-0.2,0.7c-1.3,0.6-2.1,1.9-2.1,3.3c0,2,1.6,3.7,3.7,3.7c0,0,0,0,0,0
		c1.6,0,3.1-1.1,3.6-2.6c0.1-0.3,0.4-0.4,0.7-0.4c0.3,0.1,0.4,0.4,0.4,0.7C12.4,15.2,10.6,16.6,8.5,16.6z"/>
</g>
</svg>
