<?xml version="1.0" encoding="utf-8"?>
<!-- Generator: Adobe Illustrator 25.2.1, SVG Export Plug-In . SVG Version: 6.00 Build 0)  -->
<svg version="1.0" id="Layer_1" xmlns="http://www.w3.org/2000/svg" xmlns:xlink="http://www.w3.org/1999/xlink" x="0px" y="0px"
	 viewBox="0 0 20 20" enable-background="new 0 0 20 20" xml:space="preserve">
<g>
	<g>
		<circle fill="#5A5A5A" cx="10" cy="10" r="10"/>
		<g>
			<path fill="#FFFFFF" stroke="#FFFFFF" stroke-width="0.6707" stroke-linecap="round" stroke-miterlimit="10" d="M9,10.9
				C8.4,10.3,7.2,10,5.5,10c-1.7,0-3.4-1.5-2.7-3.6c0.6-1.8,2.3-2.4,4-1.9c1.7,0.5,2.5,1.5,3.3,1.8c0.8,0.4,1.4,0.6,2.2,0.6"/>
			<path fill="#FFFFFF" stroke="#FFFFFF" stroke-width="0.6707" stroke-linecap="round" stroke-miterlimit="10" d="M9,5.7
				c0.6,0.6,3.8-0.6,5.4-0.6c1.7,0,3.5,1.7,3,3.9c-0.4,1.9-2.2,2.3-3.9,1.7c-1.7-0.6-2.5-1.5-3.3-1.8C9.5,8.5,8.5,8.3,7.3,8.7"/>
			
				<line fill="#FFFFFF" stroke="#FFFFFF" stroke-width="0.4192" stroke-linecap="round" stroke-miterlimit="10" x1="7.1" y1="12.3" x2="7.1" y2="14.8"/>
			
				<line fill="#FFFFFF" stroke="#FFFFFF" stroke-width="0.4192" stroke-linecap="round" stroke-miterlimit="10" x1="13.2" y1="12.3" x2="13.2" y2="14.8"/>
			
				<line fill="#FFFFFF" stroke="#FFFFFF" stroke-width="0.4192" stroke-linecap="round" stroke-miterlimit="10" x1="12" y1="12.7" x2="12" y2="15.1"/>
			
				<line fill="#FFFFFF" stroke="#FFFFFF" stroke-width="0.4192" stroke-linecap="round" stroke-miterlimit="10" x1="8.3" y1="12.7" x2="8.3" y2="15.1"/>
			
				<line fill="#FFFFFF" stroke="#FFFFFF" stroke-width="0.4192" stroke-linecap="round" stroke-miterlimit="10" x1="9.5" y1="12.8" x2="9.5" y2="15.3"/>
			
				<line fill="#FFFFFF" stroke="#FFFFFF" stroke-width="0.4192" stroke-linecap="round" stroke-miterlimit="10" x1="10.8" y1="12.8" x2="10.8" y2="15.3"/>
			<path fill="#FFFFFF" stroke="#FFFFFF" stroke-width="0.6707" stroke-linecap="round" stroke-miterlimit="10" d="M5.9,10.1v5.1
				c0,0,0.7,1.3,4.2,1.3s4.2-1.3,4.2-1.3v-4"/>
		</g>
		
			<rect x="7.8" y="7.8" fill="#FFFFFF" stroke="#FFFFFF" stroke-width="0.5556" stroke-linecap="round" stroke-miterlimit="10" width="5.8" height="4.9"/>
	</g>
	<g>
		
			<line fill="none" stroke="#58595B" stroke-width="1.1111" stroke-linecap="round" stroke-miterlimit="10" x1="7.9" y1="10" x2="7.9" y2="14"/>
		
			<line fill="none" stroke="#58595B" stroke-width="1.1111" stroke-linecap="round" stroke-miterlimit="10" x1="10.2" y1="10" x2="10.2" y2="14"/>
		
			<line fill="none" stroke="#58595B" stroke-width="1.1111" stroke-linecap="round" stroke-miterlimit="10" x1="12.4" y1="10" x2="12.4" y2="14"/>
	</g>
</g>
</svg>
