<?xml version="1.0" encoding="utf-8"?>
<!-- Generator: Adobe Illustrator 25.2.1, SVG Export Plug-In . SVG Version: 6.00 Build 0)  -->
<svg version="1.0" id="Layer_1" xmlns="http://www.w3.org/2000/svg" xmlns:xlink="http://www.w3.org/1999/xlink" x="0px" y="0px"
	 viewBox="0 0 20 20" enable-background="new 0 0 20 20" xml:space="preserve">
<g>
	<circle fill="#5A5A5A" cx="10" cy="10" r="10"/>
	<g>
		<path fill="#FFFFFF" d="M13.8,12.2c0,2.9-0.3,2.9-3.8,2.9c-3.2,0-3.8,0.4-3.8-2.9c0-1.4,1.7-2.3,3.8-2.3S13.8,10.8,13.8,12.2z"/>
		<path fill="#FFFFFF" d="M4.9,12.2c0,0.6,0,1.1,0.1,1.5c-2.5,0-3,0.3-3-2.3c0-1.1,1.3-1.8,3-1.8c0.4,0,0.9,0,1.3,0.1
			C5.4,10.3,4.9,11.2,4.9,12.2z"/>
		<path fill="#FFFFFF" d="M18,11.4c0,2.3-0.3,2.3-3,2.3h0c0.1-0.4,0.1-0.9,0.1-1.5c0-1-0.5-1.9-1.3-2.5c0.4-0.1,0.8-0.1,1.3-0.1
			C16.6,9.6,18,10.3,18,11.4z"/>
		<circle fill="#FFFFFF" cx="5" cy="7.2" r="1.7"/>
		<circle fill="#FFFFFF" cx="15" cy="7.2" r="1.7"/>
		<circle fill="#FFFFFF" cx="10" cy="7.1" r="2.2"/>
	</g>
</g>
</svg>
