<?xml version="1.0" encoding="utf-8"?>
<!-- Generator: Adobe Illustrator 25.2.1, SVG Export Plug-In . SVG Version: 6.00 Build 0)  -->
<svg version="1.0" id="Layer_1" xmlns="http://www.w3.org/2000/svg" xmlns:xlink="http://www.w3.org/1999/xlink" x="0px" y="0px"
	 viewBox="0 0 20 20" enable-background="new 0 0 20 20" xml:space="preserve">
<g>
	<circle fill="#5A5A5A" cx="10" cy="10" r="10"/>
	<g>
		<ellipse transform="matrix(0.9809 -0.1947 0.1947 0.9809 -0.8751 1.5501)" fill="#FFFFFF" cx="7.4" cy="5.2" rx="1.8" ry="2.4"/>
		<ellipse transform="matrix(0.1738 -0.9848 0.9848 0.1738 5.6211 17.1521)" fill="#FFFFFF" cx="13" cy="5.2" rx="2.4" ry="1.8"/>
		<ellipse transform="matrix(0.8992 -0.4376 0.4376 0.8992 -3.7615 2.7771)" fill="#FFFFFF" cx="4.1" cy="9.6" rx="1.6" ry="2.1"/>
		<ellipse transform="matrix(0.4016 -0.9158 0.9158 0.4016 0.6293 20.4819)" fill="#FFFFFF" cx="16" cy="9.8" rx="2.1" ry="1.5"/>
		<path fill="#FFFFFF" d="M10.2,8.9c1.7,0,1.8,1.9,2.8,2.9s2.7,2.4,1.8,3.9c-0.9,1.4-3.2,0-4.9,0.1C8.2,16,6,17.2,5,15.6
			s1.2-3.1,2.1-4S8.4,8.9,10.2,8.9z"/>
	</g>
</g>
</svg>
