<?xml version="1.0" encoding="utf-8"?>
<!-- Generator: Adobe Illustrator 25.2.1, SVG Export Plug-In . SVG Version: 6.00 Build 0)  -->
<svg version="1.0" id="Layer_1" xmlns="http://www.w3.org/2000/svg" xmlns:xlink="http://www.w3.org/1999/xlink" x="0px" y="0px"
	 viewBox="0 0 20 20" enable-background="new 0 0 20 20" xml:space="preserve">
<g>
	<circle fill="#5A5A5A" cx="10" cy="10" r="10"/>
	<g>
		<path fill="#FFFFFF" d="M7.2,15.1c-1.4,0-2.8-0.9-3.8-1.5c-0.4-0.2-0.9-0.6-1-0.6c-0.4,0-0.6-0.4-0.6-0.7c0-0.4,0.4-0.6,0.7-0.6
			c0.4,0.1,0.9,0.4,1.6,0.8c0.9,0.6,2,1.3,3.1,1.3c0.9,0,1.8-0.4,2.8-1c0.9-0.4,1.9-1,3.1-1.2c1.5-0.4,3,0.3,3.9,0.8
			c0.3,0.2,0.4,0.6,0.3,0.9c-0.2,0.3-0.6,0.4-0.9,0.3c-0.8-0.4-1.9-0.9-3-0.7c-1,0.2-1.9,0.7-2.8,1.1C9.5,14.6,8.4,15.1,7.2,15.1z"
			/>
		<circle fill="#FFFFFF" cx="14.6" cy="6.8" r="1.8"/>
		<path fill="#FFFFFF" d="M13.1,9.2c-1.2,0.3-2.2,0.8-3,1.2c-1,0.5-1.9,1-2.8,1c-0.3,0-0.7-0.1-1-0.2l4-2.7C10,8.3,9.7,8.2,9.5,8.2
			C8.2,8.2,7.2,9,7.2,9C6.9,9.3,6.4,9.3,6,9.1C5.7,8.8,5.6,8.2,5.9,7.9C6,7.8,7.3,6.3,9.4,6.4C11.4,6.5,12.5,8.2,13.1,9.2z"/>
	</g>
</g>
</svg>
