<?xml version="1.0" encoding="utf-8"?>
<!-- Generator: Adobe Illustrator 25.2.1, SVG Export Plug-In . SVG Version: 6.00 Build 0)  -->
<svg version="1.0" id="Layer_1" xmlns="http://www.w3.org/2000/svg" xmlns:xlink="http://www.w3.org/1999/xlink" x="0px" y="0px"
	 viewBox="0 0 20 20" enable-background="new 0 0 20 20" xml:space="preserve">
<g>
	<circle fill="#5A5A5A" cx="10" cy="10" r="10"/>
	<g>
		<path fill="#FFFFFF" d="M7,5.6C7.7,6.3,8.1,7.3,8,8l0,0c0,0.1,0,0.5,0,0.7c0,0.2,0.4,0.5,1.2,1.1c0.7,0.6,4.8,4.5,5.4,5.1
			c0.6,0.6,0.7,1.2,0.4,1.5c-0.3,0.3-0.9,0.2-1.5-0.4c-0.6-0.6-4.5-4.7-5.1-5.4S7.4,9.5,7.2,9.5c-0.2,0-0.6,0-0.7,0h0
			C5.8,9.6,4.9,9.2,4.1,8.5c-1.1-1.1-1.7-3-0.9-3.8C4,3.9,6,4.6,7,5.6z"/>
		<path fill="#FFFFFF" d="M4.5,14.9c0.4-0.4,2-2,3.4-3.3c0.2,0.3,0.5,0.6,0.9,0.9c-1.3,1.4-2.9,3-3.2,3.4c-0.6,0.6-1.2,0.7-1.5,0.5
			C3.8,16.2,4,15.5,4.5,14.9z"/>
		<path fill="#FFFFFF" d="M14,7.8c0.1,0.1,0.2,0.1,0.3,0.1c0.1,0,0.2,0,0.3-0.1l2.2-2.2c0.1,0.2,0.3,0.3,0.4,0.5
			c-0.8,1-2,2.2-2.6,2.8c-0.7,0.7-1.3,0.8-2.1,0.7c0,0-0.4-0.1-0.6-0.1c0,0,0,0,0,0c0,0-0.1,0-0.1,0c-0.1,0.1-0.3,0.2-0.5,0.5
			c0,0-0.1,0.1-0.1,0.1c0,0-0.1,0.1-0.1,0.1c0,0,0,0,0,0c-0.3-0.3-0.5-0.5-0.7-0.7c0,0,0,0,0.1-0.1c0,0,0.1-0.1,0.1-0.1
			c0,0,0.1-0.1,0.1-0.1C10.8,9.1,11,9,11.1,8.8c0,0,0-0.1,0-0.1C11.1,8.5,11,8.1,11,8c-0.1-0.7,0-1.3,0.7-2.1
			c0.6-0.6,1.7-1.8,2.8-2.6c0.2,0.1,0.3,0.2,0.5,0.4L12.8,6c-0.1,0.1-0.1,0.2-0.1,0.3c0,0.1,0,0.2,0.1,0.3c0.2,0.2,0.4,0.2,0.6,0
			l2.2-2.2c0.1,0.1,0.2,0.2,0.3,0.3c0.1,0.1,0.2,0.2,0.3,0.3L14,7.2C13.8,7.3,13.8,7.6,14,7.8z"/>
	</g>
</g>
</svg>
