<?xml version="1.0" encoding="utf-8"?>
<!-- Generator: Adobe Illustrator 25.2.1, SVG Export Plug-In . SVG Version: 6.00 Build 0)  -->
<svg version="1.0" id="Layer_1" xmlns="http://www.w3.org/2000/svg" xmlns:xlink="http://www.w3.org/1999/xlink" x="0px" y="0px"
	 viewBox="0 0 20 20" enable-background="new 0 0 20 20" xml:space="preserve">
<g>
	<circle fill="#58595B" cx="10" cy="10" r="10"/>
	<g>
		<circle fill="#FFFFFF" cx="10" cy="13.7" r="1.7"/>
		<path fill="#FFFFFF" d="M3.3,9.7c-0.2,0-0.3-0.1-0.5-0.2C2.4,9.3,2.3,8.8,2.6,8.4C4.3,6,7.1,4.6,10,4.6c2.9,0,5.7,1.4,7.4,3.8
			c0.3,0.4,0.2,0.9-0.2,1.2c-0.4,0.3-0.9,0.2-1.2-0.2c-1.4-1.9-3.7-3.1-6-3.1c-2.4,0-4.6,1.2-6,3.1C3.8,9.6,3.5,9.7,3.3,9.7z"/>
		<path fill="#FFFFFF" d="M6.2,11.9c-0.2,0-0.3-0.1-0.5-0.2c-0.4-0.3-0.5-0.8-0.2-1.2c1-1.4,2.7-2.3,4.5-2.3c1.8,0,3.5,0.9,4.5,2.3
			c0.3,0.4,0.2,0.9-0.2,1.2c-0.4,0.3-0.9,0.2-1.2-0.2c-0.7-1-1.9-1.6-3.1-1.6c-1.2,0-2.4,0.6-3.1,1.6C6.7,11.7,6.5,11.9,6.2,11.9z"
			/>
	</g>
</g>
</svg>
