<?xml version="1.0" encoding="utf-8"?>
<!-- Generator: Adobe Illustrator 24.0.3, SVG Export Plug-In . SVG Version: 6.00 Build 0)  -->
<svg version="1.1" id="Layer_1" xmlns="http://www.w3.org/2000/svg" xmlns:xlink="http://www.w3.org/1999/xlink" x="0px" y="0px"
	 viewBox="0 0 35 35.41" style="enable-background:new 0 0 35 35.41;" xml:space="preserve">
<style type="text/css">
	.st0{fill:#FFFFFF;}
</style>
<g>
	<polygon class="st0" points="10.8,23.91 0,32.84 0,15.01 	"/>
	<polygon class="st0" points="33.36,35.41 0.45,35.41 12.58,25.38 17.5,29.43 21.82,25.87 	"/>
	<polygon class="st0" points="35,15.01 35,33.82 23.61,24.4 	"/>
	<polygon class="st0" points="33.49,13.32 29.54,16.57 27.57,18.19 27.57,6.39 7.43,6.39 7.43,18.19 5.46,16.57 1.51,13.32 
		5.46,10.03 5.46,4.43 12.19,4.43 17.5,0 22.81,4.43 29.54,4.43 29.54,10.03 	"/>
	<g>
		<path class="st0" d="M20.65,21.66c-1.17,0.57-2.27,0.77-3.66,0.77c-3.34,0-6.23-2.41-6.23-6.35c0-4.13,2.95-7.73,7.48-7.73
			c3.56,0,6.01,2.47,6.01,5.85c0,2.99-1.68,4.81-3.72,4.81c-0.89,0-1.6-0.51-1.64-1.66h-0.06c-0.67,1.11-1.58,1.66-2.71,1.66
			c-1.25,0-2.25-0.97-2.25-2.59c0-2.49,1.9-4.75,4.77-4.75c0.89,0,1.78,0.2,2.31,0.47l-0.65,3.7c-0.24,1.36-0.06,1.98,0.55,1.98
			c0.95,0.04,2.06-1.19,2.06-3.52c0-2.79-1.72-4.83-4.85-4.83c-3.2,0-5.93,2.49-5.93,6.47c0,3.38,2.18,5.36,5.18,5.36
			c1.09,0,2.18-0.22,2.99-0.67L20.65,21.66z M19.17,13.14c-0.2-0.06-0.47-0.12-0.81-0.12c-1.54,0-2.75,1.5-2.75,3.22
			c0,0.83,0.38,1.4,1.13,1.4c0.95,0,1.86-1.21,2.06-2.41L19.17,13.14z"/>
	</g>
</g>
</svg>
