<?xml version="1.0" encoding="utf-8"?>
<!-- Generator: Adobe Illustrator 25.2.1, SVG Export Plug-In . SVG Version: 6.00 Build 0)  -->
<svg version="1.0" xmlns="http://www.w3.org/2000/svg" xmlns:xlink="http://www.w3.org/1999/xlink" x="0px" y="0px"
	 viewBox="0 0 513 281" enable-background="new 0 0 513 281" xml:space="preserve">
<g id="Background" display="none">
	<rect x="-0.5" y="-0.6" display="inline" fill="#828282" width="512.4" height="279.9"/>
</g>
<g id="Layer_2" display="none">
	<g display="inline">
		<image overflow="visible" width="513" height="281" id="WsJJTT" xlink:href="598A9B1E34866770.png" >
		</image>
	</g>
</g>
<g id="Layer_1">
	<g>
		<path fill="#FFFFFF" d="M483.4,0v205.3c-19.9-5.3-50.4-9.3-92.8-4.3c-97.6,11.6-230.3,53.3-279.4,53.3
			c-53.2,0-86.4-24.5-100.6-53.3V0H483.4z"/>
		<g>
			<path fill="#FFFFFF" d="M0,234.1c0,0,30.9,36.8,111.1,34.3c49.2-1.5,181.9-41.8,279.4-53.3c85.7-10.2,122.5,16.5,122.5,16.5
				s-41.3-15.9-126.1-3.5c-107.3,15.7-215,50.5-278.8,52.4C6,283.4,0,234.1,0,234.1z"/>
		</g>
		<g>
			
				<linearGradient id="SVGID_1_" gradientUnits="userSpaceOnUse" x1="2209.7793" y1="-2587.3071" x2="2558.0002" y2="-2587.3071" gradientTransform="matrix(-1.037 -8.623442e-03 6.147296e-03 -1.0291 2766.2288 -2409.9985)">
				<stop  offset="0" style="stop-color:#D0EEF2"/>
				<stop  offset="1" style="stop-color:#ADE1E8"/>
			</linearGradient>
			<path fill="url(#SVGID_1_)" d="M458.8,230.3c0,0-21.9,22.8-78.4,19.2c-34.6-2.2-127.8-31.1-196.4-40.8
				c-60.2-8.6-86.3,7.6-86.3,7.6s29.1-9.2,88.8,0.8c75.4,12.6,151.1,37.4,196,40.2C454.3,261.7,458.8,230.3,458.8,230.3z"/>
		</g>
		<g>
			<g>
				<path fill="#D84129" d="M88.9,104.9c-0.7-0.4-1.2-0.6-1-2.8c0.2-2.2,2.3-13,2.7-15.3c0.4-2.2,0.7-3.4,1.6-3.2s2.4,1.1,2.3,2.3
					c-0.1,1.3-0.3,2.2-0.3,2.2s1.7-3,4.3-2.6c3.6,0.5,3.3,6.2,1.9,6.2c-1.1-0.1-0.2-2.6-2.1-3c-2.6-0.5-4.9,4.9-6.2,11.9
					c-0.6,3.2-1.1,4.3-1.6,4.5C90,105.4,89.5,105.3,88.9,104.9z"/>
				<path fill="#D84129" d="M117.9,94.4c-0.4-0.2-2.5,2.5-5.3,5c-2.8,2.5-5.3,3.9-6.5,3.4c-1.1-0.4-0.8-2.9-0.7-4
					c0.2-1,0.6-2.5,1.2-2.9c0.6-0.4,3.4-1.2,5.2-3.5c1.8-2.3,2.1-5,0.8-6c-2.1-1.5-3.8-0.9-4.7-0.4c-0.9,0.5-4.1,3.4-5.6,7.9
					c-1.4,4.5-0.9,7.8-0.4,9c1.1,2.2,3.2,3.8,6.3,2.9c4.3-1.2,8-7.1,9.1-9.1C117.3,96.6,118.3,94.6,117.9,94.4z M107.8,90.3
					c1.1-1.5,2.6-2.9,3.1-2.6c0.2,0.1,0.3,1.3-0.9,3.1c-1.2,1.9-3.2,2.8-3.3,2.7C106.4,93.3,106.7,91.9,107.8,90.3z"/>
				<path fill="#D84129" d="M137.6,91.4c-0.5-0.2-1.4,0.5-3.4,1.5c-2,1-3,1.6-3,1.6s0.5-5.2,0-6.4c-0.5-1.2-1.6-1.6-2.4-1.6
					c-0.8,0.1-2.1,2.5-5.1,5.9c-2.8,3.3-5.1,4.6-5.3,4.4s0.7-2.8,1.9-5c1.3-2.1,2.7-3.4,3.9-3.3c0.6,0,1.3,1,1.6,0.6
					c0.5-0.8-0.6-2.5-2.6-2.7c-0.7-0.1-2.5,0.1-4.6,3.2c-2.1,3.1-3,5.5-2.8,6.9s1.4,2.9,2.6,3c1.3,0.1,2.8-0.6,5.3-3.2
					c2.7-2.8,4.3-5.3,4.3-5.3s-0.5,5.7-0.8,6.2c-0.3,0.5-5.5,5.6-10.2,12.1c-4.6,6.5-6.3,11.4-6.4,13.6c-0.1,1.6,0.5,5.3,4,5.9
					c3.5,0.6,11.1-3.3,13.9-16.1c2.3-10.6,2.2-14.7,2.4-15.1c0.2-0.5,1.1-1.2,3.6-2.7c2.1-1.3,3.6-2.2,3.7-2.5
					C138.4,92.2,138.1,91.5,137.6,91.4z M121.1,121.1c-4.2,6-6.6,5.4-7,5.1c-0.5-0.4-1-1.7-0.7-3.3c0.3-2,1.6-6.1,5.9-12.1
					c3.3-4.7,5.8-7.6,7.7-9.7C126.9,101.2,125.3,115.1,121.1,121.1z"/>
				<path fill="#D84129" d="M141.5,86c-1.1,0.3-3.4,3.4-4.7,8.8c-1.3,5.5-0.4,7.1,0.4,8c0.8,0.9,3.7,2.4,6,1.6
					c2.4-0.8,3.3-4.1,3.6-5c0.3-1,1-3.8,1.2-4.1c0.2-0.2,1-0.1,2.4-0.5c1.8-0.5,3.3-1.4,4.1-2.1c0.8-0.7,0.7-0.8,0.5-1
					c-0.2-0.2-0.8-0.7-1.7-0.3c-0.9,0.5-1.4,0.8-2.6,1.2c-1.1,0.4-2.4,0.6-2.6,0.4c-0.3-0.2-0.1-1.3-1.2-2c-1.2-0.7-3.3,0.3-3.7,1.1
					c-0.3,0.6-0.3,1.2-0.1,1.5c0.2,0.4,0.7,0.7,1,0.8c0.7,0.3,0.8,0.4,0.9,0.7c0.1,0.3-0.6,2.5-1.2,4.1c-0.7,1.6-1.8,3.4-2.7,3.2
					c-0.8-0.2-1.2-2.3-0.4-6.7s2.9-8,3.2-8.5c0.3-0.5,0.2-0.8-0.3-1.1C143.3,85.9,142.2,85.7,141.5,86z"/>
				<path fill="#D84129" d="M155.3,86.6c-0.7,0.2-2.2,3-2.7,8.2c-0.3,2.8-0.2,4.1,0,4.9c0.2,0.6,0.4,1.1,1,1.7
					c0.7,0.8,1.2,1.2,2.5,0.9c1.2-0.3,2.5-3.5,4.5-6.7c2.7-4.4,4.6-6,4.6-6s-1.1,3-2.2,7.4c-1.1,4.5-1.1,6.1-0.9,7.4s1.5,2.9,2.9,3
					c1.4,0.1,3.6-0.8,6.9-7.3c3.4-6.7,5.6-8.4,5.7-8.7c0.2-0.5-0.8-1.4-1.3-1.2c-0.5,0.2-2.7,2.4-5.9,8.1c-2.1,3.8-4.1,5.9-4.6,5.7
					c-0.5-0.2,0-2.7,0.9-6.5c0.9-3.8,2.2-8.6,1.8-9.8c-0.5-1.2-2.2-1.5-2.9-1.3c-0.7,0.3-3,2.2-5.2,5.2c-1.9,2.6-3.5,5.4-3.7,5.3
					c-0.2-0.1-0.1-1.8,0.4-3.9c0.6-2.3,1.9-4.4,1.3-5.2C157.7,87,156.3,86.3,155.3,86.6z"/>
				<path fill="#D84129" d="M177.2,80.9c-0.6,0.3-0.8,0.7-0.8,2.2c0,1.5,0.2,4.9,0.2,4.9s0.2,0.3,1,0.2c0.8-0.1,1.4-1.5,1.6-2.8
					c0.2-1.3,0.3-2.2,0.4-3c0.1-0.7,0.4-1.3,0-1.6C179.1,80.5,177.8,80.6,177.2,80.9z"/>
				<path fill="#D84129" d="M183.9,102.7c-0.2,0.6-2.4,1.7-3.7,2.8s-1.5,2.5-1.3,3.2c0.2,0.7,2.1,2.5,5.1,0.2c2.7-2,2.9-5,3.5-5.8
					c0.6-0.8,2.6-2.3,4.4-3.5c1.9-1.2,4.3-2.6,4.6-3.1c0.3-0.4-0.3-1.4-1.6-1.2c-1.3,0.2-2.9,1.6-4.3,2.6c-1.4,1-2.8,2-3.1,1.9
					c-0.3-0.1-0.8-1.6-1.8-3c-1.1-1.4-2.3-2.4-2.3-3.7c0-1.4,1.1-3.5,2.3-4.9c1.3-1.5,3.1-2.6,4.1-2.1c1,0.5,0.2,2.4,0,3
					c-0.1,0.6,0.1,0.9,0.6,1c0.5,0.1,1.4,0,2.1-1.1c0.7-1,1.1-3.1,0.6-4c-0.5-0.9-2.2-2.3-5.1-2.2c-2.9,0.1-5.3,2.5-6.7,4.4
					c-1.3,1.9-2.2,3.8-1.7,6.2c0.5,2.3,2.3,3.1,3.4,4.7C184.2,99.8,184.3,101.4,183.9,102.7z"/>
				<path fill="#D84129" d="M82.9,68.1c-2.3-1.9-4.7-2.4-8.2-1.9c-3.1,0.4-7.1,2.6-9,6.2c-1.9,3.6-1.6,5.2-1.6,5.2s-7.4,9.5-6,22.7
					c0.5,4.8,3,9.7,9.2,9.9c6.2,0.2,13.2-5.4,17.1-15.3C89.5,81.5,87.7,72.1,82.9,68.1z M76.9,100.4c-4.4,6.7-8.2,7.5-10.5,6.4
					c-2.3-1.1-4.6-4.2-4-11.8c0.6-7.6,3-11.6,3-11.6s0.7,1.6,2.7,2.4c2.1,0.8,3.5,0.1,3.4-0.6c-0.1-0.7-1.9-0.9-2.8-3.1
					c-0.9-2.2-0.4-4.1-0.4-4.1s0.5-1.7,3.3-3.8c2.5-1.9,4.5-2.2,5.6-2.6c0.6-0.2,0.9-0.5,0.8-0.9c-0.2-0.7-1.5-0.8-3.5-0.4
					c-2.1,0.4-3.5,1.3-3.5,1.3s3.4-4.2,8-2.8c1.7,0.5,3.2,1.9,3.9,7.7C83.7,82.3,81.3,93.7,76.9,100.4z"/>
			</g>
			<g>
				<g>
					<path fill-rule="evenodd" clip-rule="evenodd" fill="#CF4227" d="M433,91.4L433,91.4c0,0.3,0,0.5-0.1,0.8
						c-0.1,1.1-0.4,2.2-0.9,3.3c-0.3,0.6-0.7,1.3-1.3,2c0,0,0,0,0,0c-0.2,0.2-0.4,0.4-0.6,0.7c-0.6,0.7-1.3,1.4-2,2.1
						c-0.2,0.1-0.3,0.3-0.5,0.4c-0.3,0.3-0.6,0.6-1,0.8c-1.1,1-2.4,1.9-3.7,2.8c-1.6,1.1-3.2,2.1-4.9,3c0,0,0,0,0,0
						c0,0-0.1,0.1-0.1,0.1c-0.4,0.2-0.9,0.5-1.3,0.7c-1,0.5-2,1-3,1.4l-0.1-0.1l-2.1-3.3l-3.1-4.9l-0.5-0.8l-2.8-2.2l-6.4-4.9
						l-4.6-3.5l-13.3-4.7l-1.7-0.6c-0.1-2.5-0.1-4.8,0.2-6.9c0.2-1.6,0.5-3,0.9-4.1c3.5-9.5,16.8-8.1,26.6-4.3
						c3.5,1.3,5.9,2.4,9.3,3.9c3.2,1.4,6.4,3.4,9.2,5.6c0.3,0.2,0.5,0.4,0.7,0.6c0.9,0.7,1.7,1.5,2.4,2.3c1.6,1.8,3,3.7,3.7,5.7
						C432.8,88.7,433,90,433,91.4z"/>
					<path fill-rule="evenodd" clip-rule="evenodd" fill="#F16A3A" d="M423.3,89.4c-3.1,3.3-8.6,6.7-14.7,8.5
						c-0.9,0.2-1.8,0.4-2.9,0.4l-6.4-4.9c13.7,1,26.1-8.7,26.6-14.6c0-0.4,0-0.9-0.1-1.3c0.4,0.6,0.6,1.3,0.8,1.9
						C428.2,84,425,87.6,423.3,89.4z"/>
					<path fill-rule="evenodd" clip-rule="evenodd" fill="#A42E22" d="M433.5,129.9c-3.4,3.8-8.8,8-11.6,7.8c1.9-1.7,5-4.9,7.8-9.2
						c0.5,0.4,0.8,0.9,1.6,1.3C431.9,130.1,432.9,130.1,433.5,129.9z"/>
					<path fill-rule="evenodd" clip-rule="evenodd" fill="#A42E22" d="M423.8,118.8c3.1,2.7,4.4,5.6,6.4,8.7c1.6,2.4,5,0.8,4.2-1.4
						c-1.2-3.7-5.5-6.2-8.5-9.8c-0.4,1.1-1,2.2-2,2.5C423.9,118.8,423.9,118.8,423.8,118.8z"/>
					<path fill-rule="evenodd" clip-rule="evenodd" fill="#A42E22" d="M424.6,115.4c0,0.9-0.5,2.2-1.5,2.5c-1.1,0.4-2.7,0.2-4.8-0.2
						l-1.7-3.7l-0.5-1.1l-0.2-0.5c3.1,0.2,5.6,0.5,7.6,1.6C424.5,114.4,424.6,114.9,424.6,115.4z"/>
					<path fill-rule="evenodd" clip-rule="evenodd" fill="#A42E22" d="M354.6,49.2c-0.6-4.5-0.7-9.7,2.4-12.5
						c-0.3,2.3-0.3,6.2,1.5,11.7c-0.2-0.1-0.4-0.2-0.6-0.2C356.9,47.9,355.5,48.6,354.6,49.2z"/>
					<path fill-rule="evenodd" clip-rule="evenodd" fill="#A42E22" d="M463.3,93c3.7-2.7,7.4-6.3,7.2-10.4c-1.5,1.8-4.2,4.5-9.4,7.1
						c0.2,0.1,0.4,0.2,0.6,0.3C462.6,90.5,463.1,91.9,463.3,93z"/>
					<path fill-rule="evenodd" clip-rule="evenodd" fill="#F16A3A" d="M357,47.5c-0.5-3.3-0.9-6.8,0.1-9.6c0,1.8,0.3,5.8,1.4,9.7
						C358,47.4,357.6,47.4,357,47.5z"/>
					<path fill-rule="evenodd" clip-rule="evenodd" fill="#F16A3A" d="M463.1,90.3c2.7-2,5.5-4.1,6.7-6.8c-1.2,1.3-4.3,3.8-7.9,5.8
						C462.4,89.5,462.7,89.8,463.1,90.3z"/>
					<path fill-rule="evenodd" clip-rule="evenodd" fill="#A42E22" d="M344,66.2c-5.6-0.6-11.8-0.7-13.9,2c2.6-0.2,7-0.2,13.2,1.3
						C342.9,68.5,343.5,67,344,66.2z"/>
					<path fill-rule="evenodd" clip-rule="evenodd" fill="#A42E22" d="M458.3,112c4.3,3.6,8.8,7.9,8.3,11.3c-1.7-2-4.8-5.2-10.2-8.5
						C457.4,114.5,458.1,113.1,458.3,112z"/>
					<path fill-rule="evenodd" clip-rule="evenodd" fill="#A42E22" d="M447.7,126.5c1.2,4.3,1.8,9.1-0.8,11.7
						c-0.1-2.2-0.6-5.9-2.9-10.8c0.1,0,0.2,0.1,0.3,0.1C445.4,127.8,446.8,127.2,447.7,126.5z"/>
					<path fill-rule="evenodd" clip-rule="evenodd" fill="#A42E22" d="M367.1,61.5c-4.8-5.3-6.6-11.5-9.2-12.2
						c-0.7-0.2-1.8,0.2-2.4,0.7c-0.7,0.5-0.7,0.7-0.5,1.5c0.7,3.1,5.1,6,8.8,12.3C363.8,63,365.7,61.4,367.1,61.5z"/>
					<path fill-rule="evenodd" clip-rule="evenodd" fill="#A42E22" d="M445.8,92.7c7.2-0.3,12.9-3.3,15.2-2c0.7,0.4,1.1,1.4,1.2,2.2
						c0.1,0.8,0,1-0.7,1.4c-2.7,1.7-7.9,0.6-14.9,2.4C447,96.1,446.8,93.6,445.8,92.7z"/>
					<path fill-rule="evenodd" clip-rule="evenodd" fill="#A42E22" d="M362.2,75.9c-7.3-4.5-16.4-4-17.8-6.4c-0.3-0.6,0-1.8,0.4-2.6
						c0.5-1,0.8-1.1,1.9-1.1c3.7,0.1,8,4.1,16.6,5.7c-0.9,0.6-1.8,2-1.8,3C361.7,75,361.9,75.4,362.2,75.9z"/>
					<path fill-rule="evenodd" clip-rule="evenodd" fill="#A42E22" d="M438.8,106.3c8.3,2.1,14.3,8.9,17,8.2
						c0.7-0.2,1.3-1.2,1.6-2.1c0.4-1.1,0.2-1.4-0.6-2.1c-2.7-2.5-8.6-2.8-15.8-7.9c0.1,1.1-0.1,2.7-0.9,3.3
						C439.9,106,439.5,106.2,438.8,106.3z"/>
					<path fill-rule="evenodd" clip-rule="evenodd" fill="#A42E22" d="M434.1,113.7c5.7,5.3,7.5,12.1,10.3,12.8
						c0.7,0.2,1.6-0.1,2.2-0.5c1.1-0.6,1.2-1.1,0.7-2.2c-1.2-3.1-6.3-6.3-9.8-13.5c-0.2,1.2-0.7,2.6-1.4,3
						C435.7,113.6,435,113.7,434.1,113.7z"/>
					<path fill-rule="evenodd" clip-rule="evenodd" fill="#A42E22" d="M373.4,75.7c-4-5.2-7.9-7.7-8.8-10.6
						c-0.2-0.7,0.1-1.2,0.4-1.5c0.5-0.6,1.4-1.1,2.2-0.9c2.1,0.4,2.7,3.4,6.2,7.7C373.3,71.9,373.3,73.7,373.4,75.7z"/>
					<path fill-rule="evenodd" clip-rule="evenodd" fill="#A42E22" d="M445.7,95.6c0,0.4-0.1,1-0.8,1.3c-2.3,1.2-7.7,0.6-13.2,0.9
						v-0.1c0.5-0.7,0.9-1.3,1.2-1.9c0.3-0.6,0.5-1.1,0.7-1.7c5.1-0.6,9.7-1.9,11.3-0.8C445.4,93.9,445.7,94.8,445.7,95.6z"/>
					<path fill-rule="evenodd" clip-rule="evenodd" fill="#A42E22" d="M374.3,83.3l-2.6-0.5c-4.4-3.9-8.7-5.9-9-8
						c-0.1-0.8,0.6-1.7,1.2-2.2c0.4-0.3,0.6-0.5,1.7-0.1c2.8,1.2,3.7,3.4,8.4,7.5C374,80.9,374.1,82.1,374.3,83.3z"/>
					<path fill-rule="evenodd" clip-rule="evenodd" fill="#A42E22" d="M439.3,105c-2,1.5-7.3-0.9-14.7-0.7c0.9-0.7,1.8-1.4,2.6-2.1
						c0.3-0.3,0.7-0.6,1-0.9l0.1,0c0.2-0.1,0.3-0.3,0.4-0.4c0.1-0.1,0.1-0.1,0.2-0.2c5.3,0.2,7.4-0.4,10,0.6c1,0.4,1.1,0.8,1.1,1.2
						C440.2,103.4,439.9,104.6,439.3,105z"/>
					<path fill-rule="evenodd" clip-rule="evenodd" fill="#A42E22" d="M436.3,110c-0.1,1-0.4,2.2-1.6,2.4c-2,0.3-11.2-0.8-19.6-1.5
						l-0.4-0.7c0.8-0.3,1.6-0.7,2.4-1.2c0.4-0.2,0.8-0.4,1.2-0.7l0.1,0c0,0,0.1,0,0.1-0.1l0,0c0.4-0.2,0.8-0.5,1.3-0.7h0
						c6,0,11.8-0.4,14.7,0.3C436.4,108.3,436.3,109.6,436.3,110z"/>
					<path fill-rule="evenodd" clip-rule="evenodd" fill="#CF4227" d="M404.3,37.1c4.4-0.3,10.4,0.3,12.2,4.2
						c1.1-8.5-7.3-9.9-12.9-10.5c-1.8-0.2-2,0.7-2.1,2.6c-0.2,2.3,0,3.4,0.6,3.7C402.5,37.4,403.1,37.2,404.3,37.1z"/>
					<path fill-rule="evenodd" clip-rule="evenodd" fill="#CF4227" d="M434.2,49.6c-2.9-3.4-7.6-7.1-11.6-5.6
						c5.2-6.7,12.2-1.9,16.5,1.7c1.5,1.2,1.1,1.8-0.2,3.4c-0.5,0.6-1.1,1.2-1.7,1.6C435.2,52.1,435.4,51.1,434.2,49.6z"/>
					<path fill-rule="evenodd" clip-rule="evenodd" fill="#F16A3A" d="M402.8,32.4c3.7,0.3,8.4,1,11,3.3c-0.9-1.6-3.4-4.2-10.8-5.3
						C402.1,30.3,402,32.3,402.8,32.4z"/>
					<path fill-rule="evenodd" clip-rule="evenodd" fill="#F16A3A" d="M438.8,48.1c-0.2-0.1-0.3-0.3-0.5-0.4c-2.6-2.3-6.3-5-9.7-5.4
						c1.9-0.4,5.7,0.1,11.4,4.4c0.3,0.3,0.2,0.7-0.2,1C439.6,48,439.1,48.3,438.8,48.1z"/>
					<path fill-rule="evenodd" clip-rule="evenodd" fill="#CF4227" d="M399.7,46c0.8-0.3,10.9,1.7,12.6-1.8
						c-9.4-0.8-15.7-2.8-16.1-7.9c-0.2-3,0.2-3.2-3-4c-7-1.8-15.1,4.4-15.9,10.1C376.6,48.5,393.1,48.7,399.7,46z"/>
					<path fill-rule="evenodd" clip-rule="evenodd" fill="#CF4227" d="M431,59.3c-0.3-0.9-8.6-7-7.4-10.7c7,6.5,12.8,9.8,16.6,6.6
						c2.3-1.9,2.2-2.4,4.9-0.5c6,4,7.3,14.4,3.7,18.8C445,78.4,433.6,66.1,431,59.3z"/>
					<path fill-rule="evenodd" clip-rule="evenodd" fill="#CF4227" d="M379.5,57c0.2-1.6,0.2-2.2,1.1-4.2c0.8-1.6,3.1-2.6,1.6-5.5
						c-0.9-1.8-3.9-4.8-6.3-5.1c-3-0.3-7.7,8.4-3.9,13.4c0.6,0.8,2.2,0.4,3.7,0.9C377.5,57.2,379.3,58.6,379.5,57z"/>
					<path fill-rule="evenodd" clip-rule="evenodd" fill="#CF4227" d="M439.9,81c1.4-1.1,1.9-1.3,3.3-3.3c1.2-1.6,1-4.4,4.3-4.4
						c2-0.1,6.1,1.1,7.4,3.2c1.6,2.7-4.3,11.7-10.6,10.9c-1-0.1-1.3-1.8-2.4-3.1C440.7,83,438.6,82,439.9,81z"/>
					<path fill-rule="evenodd" clip-rule="evenodd" fill="#CF4227" d="M379,61.6c0,0-0.1,0-0.1,0.1c-0.1,0-0.2,0.1-0.3,0.2
						c-2.1,1.2-3.6,2.9-4.3,5.1c0,0.1,0,0.1-0.1,0.2c-1.3-3.2-2.3-5-0.6-6.7C374.7,59.2,376.7,59.1,379,61.6L379,61.6z"/>
					<path fill-rule="evenodd" clip-rule="evenodd" fill="#CF4227" d="M439.3,87.8c0,2.4-2.1,2.9-5.4,4.3c0,0,0,0,0,0
						c0-0.2,0-0.4,0-0.6c0-0.9-0.1-1.9-0.3-2.9c0.1-0.4,0.2-0.7,0.2-1.1c0.1-0.8,0.2-1.6,0.1-2.4C437.3,84.7,439.3,86.2,439.3,87.8z
						"/>
					<path fill-rule="evenodd" clip-rule="evenodd" fill="#F16A3A" d="M377.9,61.1c-0.6,0.4-1.1,0.8-1.6,1.2c-0.4-0.5-0.8-1-1.7-2
						C375.1,60.1,376.4,59.8,377.9,61.1z"/>
					<path fill-rule="evenodd" clip-rule="evenodd" fill="#F16A3A" d="M438.7,87.3c-2.2,0.1-2.6,0.1-3.9,0.4c0,0,0,0,0-0.1
						c0.1-0.7,0.2-1.5,0.2-2.2C437.6,85.4,438.5,86.7,438.7,87.3z"/>
					<path fill-rule="evenodd" clip-rule="evenodd" fill="#F16A3A" d="M377.7,43.4c2.4,2.2,0.2,3.5-0.8,5.8c-1,2.4,0,4.8-4.1,2.9
						C375.2,52,377.2,44.9,377.7,43.4z"/>
					<path fill-rule="evenodd" clip-rule="evenodd" fill="#F16A3A" d="M452.9,75.6c1.4,2.1-3.9,9.8-7.4,6.9
						C447.7,83,452,76.9,452.9,75.6z"/>
					<path fill-rule="evenodd" clip-rule="evenodd" fill="#F16A3A" d="M411.8,42.4c-2.8,0.9-11.2-0.5-14.1-0.1
						c-5.5,0.7-18.3,2.2-16-6.2c0.4,6.2,10.1,4.1,14.4,4.3C400.2,40.5,408.6,42.7,411.8,42.4z"/>
					<path fill-rule="evenodd" clip-rule="evenodd" fill="#F16A3A" d="M425.1,48.1c1.3,2.6,8.7,6.9,10.5,9.3
						c3.4,4.4,11.3,14.6,15.6,7c-4.7,4-10-4.3-13.1-7.3C435.1,54.3,427.1,50.6,425.1,48.1z"/>
					<path fill-rule="evenodd" clip-rule="evenodd" fill="#A42E22" d="M401.6,35.7c4.1-1,12.6,0.2,14.6,4.7
						c1.2-8.9-8.6-11-14.2-11.4c1.7,1.1,10.8,2.1,12.7,7.3C405.2,31.7,401.8,34,401.6,35.7z"/>
					<path fill-rule="evenodd" clip-rule="evenodd" fill="#A42E22" d="M437.2,50.5c-2.1-3.7-8.9-8.8-13.6-7.1
						c5.5-7,13.9-1.5,18.1,2.1c-2-0.4-9.1-6.2-14.1-3.9C437.6,45.1,438.4,49.1,437.2,50.5z"/>
					<path fill-rule="evenodd" clip-rule="evenodd" fill="#A42E22" d="M385,45.5c5.4,1,9.1,0.3,14.2-1c5.1-1.3,12.1,1.9,16.8-3.1
						c-0.4,0-1.9,0.1-3-0.9c-0.2-0.2-0.9,0.8-1.2,0.8c-0.3,0-1-1.1-1.2-0.9c-0.3,0.3-0.7,0.7-1.1,0.7c-0.4,0-0.7-1.1-1-0.9
						c-0.3,0.2-0.8,0.6-1.2,0.6c-0.3,0-0.4-0.9-0.7-1c-0.3-0.1-1,0.6-1.3,0.6c-0.3-0.1-0.3-1.1-0.6-1.1c-0.4,0-1.1,0.6-1.5,0.4
						c-0.2-0.1-0.2-0.9-0.4-1c-0.3-0.2-0.9,0.3-1.1,0c-1.4-1.2-2-3.1-1.4-5.9c0.7-3.3,0.6-3.6-2.5-4.1c-1.1-0.2-2.3-0.2-3.5-0.2
						c4.6,0.9,4.3,2.3,3.6,5.4c-0.4,2.1,0.2,3.9,1.1,5.1c1,1.5,6.9,3.7,14.1,3.4c-3.4,1.2-12.5-0.4-16.2,0.4
						c-6.2,1.5-10.2,0.6-13.8-0.3c-6.5-1.7-1.3-9.9,2-12.3c-4,1.6-7,4.3-7.9,7.6C375.9,43.2,381.2,44.8,385,45.5z"/>
					<path fill-rule="evenodd" clip-rule="evenodd" fill="#A42E22" d="M442.9,69.8c-5.3-3.4-7.4-6.6-10.2-11.5
						c-2.6-4.6-9.8-7.3-9.6-14.1c0.3,0.3,1.2,1.4,2.7,1.5c0.3,0,0,1.2,0.2,1.4c0.3,0.2,1.5-0.1,1.4,0.2c0,0.4,0,1,0.3,1.2
						c0.3,0.3,1.2-0.3,1.3,0.1c0.1,0.3,0.1,1,0.4,1.3c0.2,0.2,0.9-0.3,1.2-0.2c0.2,0.2,0.3,1.1,0.5,1.3c0.3,0.2,1-0.5,1.3-0.3
						c0.3,0.3,0.4,1.2,0.7,1.3c0.3,0.1,0.8-0.5,1-0.4c0.4,0.1,0.4,0.8,0.8,0.8c1.8,0.1,3.6-0.8,5.1-3.1c1.9-2.8,2.1-3,4.7-1
						c0.9,0.7,4,3.5,5.7,6.2c-2.8-2.6-6.4-4.8-7.4-4.6c-1.1,0.3-1.2,0.5-2.1,1.9c-1.2,1.8-2.9,2.6-4.4,2.8
						c-1.8,0.3-7.5-2.3-12.3-7.6c1.5,3.3,9,8.6,11.1,11.9c3.4,5.4,6.7,7.7,9.9,9.6c5.7,3.4,8.1-4.7,7.8-8.1c1.3,3.4,1.5,6-0.3,9
						c-0.7,1.2-2,1.9-3.2,2.3C446.6,72.4,445.2,71.3,442.9,69.8z"/>
					<path fill-rule="evenodd" clip-rule="evenodd" fill="#A42E22" d="M378.1,53.8c0.3-1.1,0.8-2.2,1.5-3.6c0.9-1.9,3.5-3.1,2-6.2
						c-0.9-2-4-5.3-6.6-5.5c-0.7,0-1.5,0.4-2.2,1.1c0.3-0.1,0.5-0.1,0.8-0.1c2.1,0.3,4.8,2.9,5.6,4.5c1.2,2.1-1.7,4.8-2.6,8.2
						c-0.4,1.6-0.9,2.1-2.6,1.8c-1.3-0.2-2.1,0.5-2.9-0.2c-1.2-1-2-6.1-0.4-10.7c-2.6,5.1-2,10.3-0.4,12.3c1.2,1.4,1.8,0.3,3.8,0.4
						c0.5,0,2,0.4,2.3,0.3C377.4,55.9,377.7,55.2,378.1,53.8z"/>
					<path fill-rule="evenodd" clip-rule="evenodd" fill="#A42E22" d="M441,79.8c0.6-1,1-2.1,1.6-3.6c0.7-2-0.3-4.7,3-5.8
						c2.1-0.7,6.6-0.9,8.5,0.8c0.5,0.5,0.8,1.3,0.8,2.3c-0.1-0.2-0.3-0.4-0.5-0.6c-1.7-1.3-5.4-1.3-7.1-0.9c-2.4,0.6-2.2,4.6-4,7.7
						c-0.9,1.5-0.9,2.1,0.5,3.1c1.1,0.8,1.1,2.2,2.2,2.1c1.6-0.2,5.6-3,6.7-4c-1.4,2.2-4.7,5.3-7.3,5.5c-1.8,0.2-1.5-1-3-2.5
						c-0.3-0.3-1.7-1.1-1.8-1.4C440.1,81.8,440.3,81.1,441,79.8z"/>
					<path fill-rule="evenodd" clip-rule="evenodd" fill="#A42E22" d="M380.4,60.9c-0.5,0.2-0.9,0.4-1.4,0.6c-2-3.8-6.9-4.2-7.1,0.2
						c-0.6-1.7-0.7-3,0.5-4.2C375.1,54.9,378.9,58.3,380.4,60.9z"/>
					<path fill-rule="evenodd" clip-rule="evenodd" fill="#A42E22" d="M442.1,86.6c0,1.6-1,2.5-2.6,3.3c3-3.2-0.6-6.4-4.6-5.3
						c0-0.5-0.1-1-0.2-1.5C437.6,82.5,442.1,83,442.1,86.6z"/>
					<path fill-rule="evenodd" clip-rule="evenodd" fill="#A42E22" d="M409.7,64.8c-12.5-3.7-27.1-3.4-29.5,3.2
						c-0.8,2.1-0.8,5.8-0.3,9.7c0.3,2.5,0.9,5.1,1.6,7.5l-1.7-0.6l-1.1-0.4l-3.2-0.7c-1.4-6.4-1.7-12.9-0.4-16.3
						C378.3,58.4,394.6,58.5,409.7,64.8z"/>
					<path fill-rule="evenodd" clip-rule="evenodd" fill="#A42E22" d="M432.9,87.3c-0.2,1.2-0.6,2.4-1.2,3.6
						c-2.3,4.8-11.5,11.7-19.6,15.2l-3.1-4.9c7.4-2.6,17.1-8.9,19.2-13.2c1.1-2.3,1.3-4.4,0.9-6.4c-0.7-3.5-3.4-6.6-6.6-9.3
						C428.8,76,434,80.8,432.9,87.3z"/>
					<path fill-rule="evenodd" clip-rule="evenodd" fill="#F16A3A" d="M372.6,69.7c-0.1,0.6-0.1,1.3-0.2,2c-1.4-2-2.4-4-3.4-5.5
						c-0.4-0.6-1.5-2.1-1.7-2.7c-0.1-0.2-0.1-0.4,0-0.4c0.2-0.1,0.6,0.1,0.9,0.4C369.8,64.8,371.1,67.7,372.6,69.7z"/>
					<path fill-rule="evenodd" clip-rule="evenodd" fill="#F16A3A" d="M444.2,94.1c0,0.1-0.1,0.2-0.3,0.3c-0.6,0.3-2.1,0.4-2.8,0.6
						c-1.6,0.3-4.7,1.1-7.5,1.5c0-0.1,0.1-0.1,0.1-0.2c0.2-0.4,0.4-0.9,0.5-1.3c2.6,0,6.8-1.5,9.1-1.2
						C443.7,93.8,444.1,93.9,444.2,94.1z"/>
					<path fill-rule="evenodd" clip-rule="evenodd" fill="#F16A3A" d="M373.5,79.9c0,0.2,0,1.4,0,1.9c-2.1-1.8-5.8-5.2-6.9-6.3
						c-0.5-0.5-1.6-1.3-1.9-1.8c-0.1-0.2-0.1-0.3,0-0.4c0.2-0.1,0.6,0,1,0.2C367.7,74.5,371.4,78.6,373.5,79.9z"/>
					<path fill-rule="evenodd" clip-rule="evenodd" fill="#F16A3A" d="M438.9,102.1c0,0.1-0.1,0.2-0.2,0.3c-0.5,0.2-1.9,0-2.6,0.1
						c-1.3,0.1-4.9,0.1-7.6,0.1c0.2-0.1,0.3-0.3,0.5-0.4l0.1,0c0.2-0.1,0.3-0.3,0.4-0.4c0.2-0.2,0.3-0.3,0.5-0.5
						c2.7,0.1,6.5-0.1,8.2,0.4C438.4,101.7,438.9,101.9,438.9,102.1z"/>
					<path fill-rule="evenodd" clip-rule="evenodd" fill="#F16A3A" d="M435.2,109c0,0.1-0.1,0.2-0.3,0.3c-0.5,0.1-1.9-0.1-2.6-0.1
						c-1.3,0-9.6,0.3-13.8,0.2c0.1-0.1,0.2-0.1,0.3-0.1l0,0c0.1,0,0.1-0.1,0.2-0.1c0.6-0.3,1.2-0.7,1.7-1c4.5,0.1,12-0.3,13.6,0.3
						C434.7,108.5,435.1,108.7,435.2,109z"/>
					<path fill-rule="evenodd" clip-rule="evenodd" fill="#F16A3A" d="M423.7,115.4c0,0.1-0.1,0.2-0.2,0.2c-0.4,0.1-1.5-0.6-2.2-0.8
						c-1.2-0.5-2.9-0.7-4.7-0.9l-0.5-1.1c0.5,0,1.1,0.1,1.6,0.1C420,113.2,423.6,114.2,423.7,115.4z"/>
					<path fill-rule="evenodd" clip-rule="evenodd" fill="#F16A3A" d="M366.5,60.9c-0.4,0.1-1,0.3-1.5,0.7c-1.7-2.4-5-7.8-5.9-9.2
						c-0.4-0.6-1.4-1.8-1.6-2.4c-0.1-0.2-0.1-0.4,0-0.4c0.2-0.1,0.5,0.1,0.9,0.4C360.2,51.4,364.8,59,366.5,60.9z"/>
					<path fill-rule="evenodd" clip-rule="evenodd" fill="#F16A3A" d="M446.8,93.3c0.2,0.3,0.5,0.9,0.5,1.5c2.9-0.4,9-1.9,10.7-2.3
						c0.7-0.2,2.2-0.3,2.8-0.5c0.2-0.1,0.3-0.2,0.3-0.3c0-0.2-0.5-0.3-0.9-0.3C458,91.2,449.3,93.3,446.8,93.3z"/>
					<path fill-rule="evenodd" clip-rule="evenodd" fill="#F16A3A" d="M362.6,71.3c-0.3,0.3-0.7,0.8-0.8,1.4
						c-3.2-1.1-10-3.9-11.9-4.6c-0.8-0.3-2.5-0.8-3.1-1.2c-0.2-0.1-0.3-0.3-0.3-0.4c0.1-0.2,0.6-0.2,1.1-0.1
						C350.2,66.7,359.7,70.7,362.6,71.3z"/>
					<path fill-rule="evenodd" clip-rule="evenodd" fill="#F16A3A" d="M441.5,103.4c0,0.4,0,0.9-0.4,1.4c3.2,1,9.8,4.5,11.6,5.4
						c0.8,0.4,2.3,1.2,3,1.4c0.9,0.2,0.5-0.9-0.3-1.5C453.4,108.6,443.9,105,441.5,103.4z"/>
					<path fill-rule="evenodd" clip-rule="evenodd" fill="#F16A3A" d="M438,111.3c-0.2,0.4-0.6,1.7-1.1,2c2.1,2.7,5.9,7.4,7.2,8.9
						c0.6,0.7,1.6,2.1,2.2,2.5c0.2,0.2,0.4,0.2,0.4,0.2c0.1-0.1,0-0.6-0.2-1C445.3,121.5,438.1,114.1,438,111.3z"/>
					<path fill-rule="evenodd" clip-rule="evenodd" fill="#F16A3A" d="M426.6,116.2c-0.1,0.3-0.4,1.3-0.8,1.5
						c1.7,2.2,4.9,5.6,5.9,6.8c0.5,0.5,1.3,1.7,1.8,2.1c0.2,0.1,0.3,0.2,0.4,0.1c0.2-0.2,0.2-0.9-0.4-1.7
						C431.9,122.5,427,117.9,426.6,116.2z"/>
					<path fill-rule="evenodd" clip-rule="evenodd" fill="#F16A3A" d="M343.1,66.1c-3.5-0.3-7.7-0.2-10.8,0.9
						c1.9-0.1,6.4-0.4,10.5,0.5C342.8,67,342.9,66.6,343.1,66.1z"/>
					<path fill-rule="evenodd" clip-rule="evenodd" fill="#F16A3A" d="M459.1,112.7c2.8,2.2,5.6,5.1,7.1,8c-1.3-1.4-4.3-4.7-7.8-6.9
						C458.7,113.5,458.8,113.2,459.1,112.7z"/>
					<path fill-rule="evenodd" clip-rule="evenodd" fill="#F16A3A" d="M447.7,127.2c0.7,3,0.9,6.6,0.2,9.3c-0.1-1.6-0.2-5.6-1.5-9
						C446.9,127.5,447.2,127.4,447.7,127.2z"/>
					<path fill-rule="evenodd" clip-rule="evenodd" fill="#F16A3A" d="M432.3,131.1c-2.2,2.4-5.2,4.9-8.1,6.1
						c1.4-1.1,4.5-3.4,6.8-6.6C431.4,130.9,431.9,131,432.3,131.1z"/>
					<path fill-rule="evenodd" clip-rule="evenodd" fill="#A42E22" d="M398.2,60c0.3-2,0.3-2.3,0.4-3.3c0.1-1.3-0.5-1.9-1.2-2
						c-0.6-0.1-1.3,0-1.8,1.4c-0.4,1.1-0.6,1.8-0.9,3.3C395.3,59.5,397.5,59.9,398.2,60z"/>
					<path fill-rule="evenodd" clip-rule="evenodd" fill="#F16A3A" d="M397,54.8c0.8,0.1,1.8,0.8,1,5.4c-0.3-0.1-0.8-0.2-1.4-0.3
						C396.9,58.5,397.2,57.4,397,54.8z"/>
					<path fill-rule="evenodd" clip-rule="evenodd" fill="#A42E22" d="M425.2,72.6c1-1.7,1.1-2,1.5-2.9c0.6-1.2,0.3-1.9-0.4-2.3
						c-0.5-0.3-1.2-0.5-2.2,0.6c-0.8,0.9-1.3,1.4-2.1,2.8C422.7,71,424.6,72.2,425.2,72.6z"/>
					<path fill-rule="evenodd" clip-rule="evenodd" fill="#F16A3A" d="M426.2,66.6c0.7,0.4,1.4,1.4-1,5.4c-0.2-0.2-0.7-0.5-1.2-0.8
						C424.8,70,425.4,69,426.2,66.6z"/>
					<path fill-rule="evenodd" clip-rule="evenodd" fill="#231F20" d="M395.9,57.5c0.7,0.3,1.5,0,1.8-0.8c0.3-0.7,0-1.5-0.8-1.8
						s-1.5,0-1.8,0.8C394.9,56.4,395.2,57.2,395.9,57.5z"/>
					<path fill-rule="evenodd" clip-rule="evenodd" fill="#231F20" d="M424.7,68.9c0.6,0.5,1.5,0.5,2,0c0.5-0.6,0.5-1.5,0-2
						c-0.6-0.5-1.5-0.5-2,0C424.1,67.5,424.2,68.4,424.7,68.9z"/>
					<path fill-rule="evenodd" clip-rule="evenodd" fill="#58595B" d="M397.4,55.6c-0.1-0.5-0.4-0.9-0.8-1.1c-0.7-0.3-1.5,0-1.8,0.8
						c-0.2,0.4-0.1,0.9,0.1,1.3c0-0.3,0-0.5,0.1-0.8c0.3-0.7,1.1-1.1,1.8-0.8C397.1,55.2,397.3,55.4,397.4,55.6z"/>
					<path fill-rule="evenodd" clip-rule="evenodd" fill="#58595B" d="M426.6,67.7c0.1-0.5,0-0.9-0.4-1.3c-0.6-0.5-1.5-0.5-2,0
						c-0.3,0.3-0.5,0.8-0.4,1.2c0.1-0.3,0.2-0.5,0.4-0.7c0.5-0.6,1.4-0.6,2,0C426.4,67.2,426.5,67.4,426.6,67.7z"/>
					<path fill-rule="evenodd" clip-rule="evenodd" fill="#FFFFFF" d="M396.1,56c0.2,0.1,0.4,0,0.5-0.2c0.1-0.2,0-0.4-0.2-0.5
						c-0.2-0.1-0.4,0-0.5,0.2C395.8,55.6,395.9,55.9,396.1,56z"/>
					<path fill-rule="evenodd" clip-rule="evenodd" fill="#FFFFFF" d="M425.1,67.5c0.2,0.1,0.4,0.1,0.5,0c0.1-0.2,0.1-0.4,0-0.5
						c-0.2-0.1-0.4-0.1-0.5,0C425,67.1,425,67.4,425.1,67.5z"/>
				</g>
			</g>
			<g>
				<path fill="#76CED9" d="M412.8,129.6c0,0-2.9-30.2-38.8-38.1c-29.6-6.5-84.3,11.7-127.9,11c-35.4-0.5-48.4-12-48.4-12
					s14.4,17.7,53.8,19.6c40.2,1.9,90.3-15.4,118.6-11C402.5,104.2,412.8,129.6,412.8,129.6z"/>
				<path fill="#CFC096" d="M420.2,124.4c0,0-8.3-32.8-49.3-39.5c-33.2-5.4-87.6,14.4-133.8,11.3c-40.6-2.8-56.2-26.8-56.2-26.8
					s18.2,19.5,58.6,19C290.5,88,340.2,69.7,373.9,77C419.1,86.7,420.2,124.4,420.2,124.4z"/>
			</g>
			<g>
				<path fill="#004071" d="M29.7,164.5v-6.7c0-5.7,2.9-6.2,4.6-6.2c3,0,4,1.8,4,4c0,0.8-0.1,1.4-0.2,2.3h-2.3v-1
					c0-2.1-0.5-3.1-1.4-3.1c-1.1,0-1.6,0.8-1.6,3.2v8.6c0,2.3,0.4,3.1,1.6,3.1c0.7,0,1.4-0.7,1.4-2.2v-1.9h2.6v1.8
					c0,3-1.4,4.5-4,4.5C32.5,170.9,29.7,170.2,29.7,164.5z"/>
				<path fill="#004071" d="M41.6,164.1v-2.4c0-5.9,2.4-6.5,4.3-6.5c1.8,0,4.2,0.5,4.2,6.5v2.4c0,5.9-2.4,6.7-4.2,6.7
					C43.9,170.9,41.6,170.2,41.6,164.1z M47.2,164.9v-3.8c0-2.9-0.4-3.8-1.4-3.8c-1.1,0-1.5,1-1.5,3.8v3.8c0,2.9,0.4,3.8,1.5,3.8
					C46.8,168.7,47.2,167.8,47.2,164.9z"/>
				<path fill="#004071" d="M53.6,164.1v-2.4c0-5.9,2.4-6.5,4.3-6.5c1.8,0,4.2,0.5,4.2,6.5v2.4c0,5.9-2.4,6.7-4.2,6.7
					C55.9,170.9,53.6,170.2,53.6,164.1z M59.3,164.9v-3.8c0-2.9-0.4-3.8-1.4-3.8c-1.1,0-1.5,1-1.5,3.8v3.8c0,2.9,0.4,3.8,1.5,3.8
					C58.9,168.7,59.3,167.8,59.3,164.9z"/>
				<path fill="#004071" d="M65.8,165.8h2c0,2.2,0.4,2.9,1.6,2.9c0.8,0,1.2-0.6,1.2-1.2c0-0.7-0.4-1.2-1-1.9l-2.1-2.4
					c-1.1-1.3-2.1-2.7-2.1-4.5c0-2.4,1.8-3.5,3.7-3.5c2.2,0,3.6,1.1,3.6,3.2c0,0.7-0.2,1.4-0.3,1.9h-1.9c0-2-0.2-3-1.4-3
					c-1,0-1.3,0.7-1.3,1.3c0,0.7,0.4,1.3,0.9,2l2.2,2.6c0.6,0.8,1.9,2.3,1.9,4.1c0,2.1-1.4,3.6-3.9,3.6c-2.1,0-3.7-0.8-3.7-3.4
					C65.5,166.8,65.7,166.2,65.8,165.8z"/>
				<path fill="#004071" d="M83.5,151.8h2.9c2.6,0,5.9,0.3,5.9,4.3v0.9c0,2-1.3,3.4-2.5,3.7v0.1c1.9,0.3,2.8,1.9,2.8,4.1v1
					c0,4.1-2.9,4.8-6.1,4.8h-3V151.8z M86.9,159.9c1.5,0,2.6-0.7,2.6-2.5v-0.8c0-1.8-0.7-2.8-2.6-2.8h-0.6v6H86.9z M87.1,168.7
					c1.5,0,2.6-0.8,2.6-2.6v-1.5c0-1.8-0.7-2.8-2.6-2.8h-0.8v6.8H87.1z"/>
				<path fill="#004071" d="M95.6,167.2c0-2.5,1.2-3.8,3.6-5c0.6-0.3,1.3-0.6,1.9-0.8v-2c0-1.2-0.1-2.1-1.3-2.1
					c-0.8,0-1.6,0.5-1.6,2.3v0.7h-2.1c-0.1-0.6-0.2-1-0.2-1.5c0-2.3,1.7-3.5,4-3.5c3,0,3.9,1.3,3.9,4v11.4h-2.1l-0.2-1.3
					c-0.6,0.9-1.7,1.5-2.9,1.5C96.7,170.9,95.6,169.3,95.6,167.2z M101.1,168.1v-4.8c-0.3,0.1-0.7,0.3-1.1,0.5
					c-0.8,0.5-1.6,1.4-1.6,2.9c0,1.2,0.4,1.9,1.4,1.9C100.3,168.7,100.8,168.4,101.1,168.1z"/>
				<path fill="#004071" d="M110.7,170.8l-3.6-15.3h2.8l1.6,8.4l0.5,2.9h0.1l0.3-2.9l1.3-8.4h2.8l-3.2,15.8c-0.6,2.9-1.7,4.4-4,4.4
					c-0.5,0-1-0.1-1.5-0.3l0-1.7C109.4,173.9,110.6,172.9,110.7,170.8z"/>
				<path fill="#004071" d="M145.7,151.8h2.3l4.6,12.7h0.1c-0.1-1.2-0.3-2.8-0.3-5.8v-6.9h2.6v18.9h-2.3l-4.6-12.3h-0.1
					c0.1,1.3,0.3,2.9,0.3,6.8v5.6h-2.5V151.8z"/>
				<path fill="#004071" d="M159.1,164.1v-2.4c0-5.9,2.4-6.5,4.3-6.5c1.8,0,4.2,0.5,4.2,6.5v2.4c0,5.9-2.4,6.7-4.2,6.7
					C161.4,170.9,159.1,170.2,159.1,164.1z M164.8,164.9v-3.8c0-2.9-0.4-3.8-1.4-3.8c-1.1,0-1.5,1-1.5,3.8v3.8
					c0,2.9,0.4,3.8,1.5,3.8C164.4,168.7,164.8,167.8,164.8,164.9z"/>
				<path fill="#004071" d="M171.6,155.4h2l0.2,1.6c0.6-1.2,1.5-1.7,2.3-1.7c1.6,0,2.4,1,2.4,3c0,0.5-0.2,1.5-0.4,2.1h-2v-1.4
					c0-1.2-0.3-1.6-0.7-1.6c-0.4,0-0.8,0.3-1.1,0.8v12.6h-2.8V155.4z"/>
				<path fill="#004071" d="M182.2,157.4h-1.2v-2h1.4l0.6-4h2v4h2.4v2H185v9.7c0,1.3,0.6,1.6,1.2,1.6c0.5,0,1-0.1,1.3-0.4v1.6
					c-0.6,0.8-1.5,1-2.3,1c-1.6,0-3-0.7-3-4V157.4z"/>
				<path fill="#004071" d="M191,150.5h2.8v3.6l-0.1,2.6c0.8-1.1,1.9-1.5,3-1.5c1.8,0,2.8,1.3,2.8,3.7v11.7h-2.8v-11.6
					c0-1.3-0.4-1.8-1.2-1.8c-0.6,0-1.2,0.4-1.6,1.1v12.3H191V150.5z"/>
				<path fill="#004071" d="M210.4,151.8h2.9c2.6,0,5.9,0.3,5.9,4.3v0.9c0,2-1.3,3.4-2.5,3.7v0.1c1.9,0.3,2.8,1.9,2.8,4.1v1
					c0,4.1-2.9,4.8-6.1,4.8h-3V151.8z M213.8,159.9c1.5,0,2.6-0.7,2.6-2.5v-0.8c0-1.8-0.7-2.8-2.6-2.8h-0.6v6H213.8z M214.1,168.7
					c1.5,0,2.6-0.8,2.6-2.6v-1.5c0-1.8-0.7-2.8-2.6-2.8h-0.8v6.8H214.1z"/>
				<path fill="#004071" d="M223,164.4v-2.9c0-5.8,2.8-6.3,4.4-6.3c2,0,3.8,1.1,3.8,4.8c0,1.2-0.1,2.6-0.4,3.6h-5.1v1.6
					c0,2.7,0.4,3.6,1.6,3.6c0.7,0,1.3-0.5,1.3-2.1v-0.5h2.3v0.6c0,2.9-1.4,4.2-4,4.2C224.5,170.9,223,169,223,164.4z M228.7,161.7
					c0-0.3,0-1.2,0-1.6c0-2-0.5-2.8-1.4-2.8c-1,0-1.5,0.8-1.5,3.5v0.9H228.7z"/>
				<path fill="#004071" d="M235.2,155.4h2.2l0.3,1.6v0c0.9-1.4,2.1-1.8,3.2-1.8c1.8,0,2.8,1.3,2.8,3.7v11.7h-2.8v-11.6
					c0-1.3-0.4-1.8-1.2-1.8c-0.6,0-1.2,0.4-1.6,1v12.3h-2.8V155.4z"/>
				<path fill="#004071" d="M247.7,165.4v-4.8c0-5.1,2.4-5.3,3.3-5.3c1.1,0,1.9,0.7,2.4,1.3l0,0l-0.1-1.9v-4.1h2.8v20.2H254
					l-0.2-1.4c-0.5,0.8-1.3,1.6-2.7,1.6C250,170.9,247.7,170.5,247.7,165.4z M253.4,167.6v-9.2c-0.3-0.6-0.7-1.1-1.4-1.1
					c-0.8,0-1.4,0.5-1.4,2.8v5.9c0,2.3,0.6,2.8,1.4,2.8C252.7,168.7,253.1,168.2,253.4,167.6z"/>
				<path fill="#004071" d="M285.9,164.5v-6.7c0-5.7,2.9-6.2,4.6-6.2c3,0,4,1.8,4,4c0,0.8-0.1,1.4-0.2,2.3h-2.3v-1
					c0-2.1-0.5-3.1-1.4-3.1c-1.1,0-1.6,0.8-1.6,3.2v8.6c0,2.3,0.4,3.1,1.6,3.1c0.7,0,1.4-0.7,1.4-2.2v-1.9h2.6v1.8
					c0,3-1.4,4.5-4,4.5C288.7,170.9,285.9,170.2,285.9,164.5z"/>
				<path fill="#004071" d="M298.2,150.5h2.8v3.6l-0.1,2.6c0.8-1.1,1.9-1.5,3-1.5c1.8,0,2.8,1.3,2.8,3.7v11.7h-2.8v-11.6
					c0-1.3-0.4-1.8-1.2-1.8c-0.6,0-1.2,0.4-1.6,1.1v12.3h-2.8V150.5z"/>
				<path fill="#004071" d="M310.3,167.2c0-2.5,1.2-3.8,3.6-5c0.6-0.3,1.3-0.6,1.9-0.8v-2c0-1.2-0.1-2.1-1.3-2.1
					c-0.8,0-1.6,0.5-1.6,2.3v0.7h-2.1c-0.1-0.6-0.2-1-0.2-1.5c0-2.3,1.7-3.5,4-3.5c3,0,3.9,1.3,3.9,4v11.4h-2.1l-0.2-1.3
					c-0.6,0.9-1.7,1.5-2.9,1.5C311.3,170.9,310.3,169.3,310.3,167.2z M315.7,168.1v-4.8c-0.3,0.1-0.7,0.3-1.1,0.5
					c-0.8,0.5-1.6,1.4-1.6,2.9c0,1.2,0.4,1.9,1.4,1.9C314.9,168.7,315.4,168.4,315.7,168.1z"/>
				<path fill="#004071" d="M322.9,155.4h2.1l0.2,1.6c0.6-1.2,1.5-1.7,2.3-1.7c1.6,0,2.4,1,2.4,3c0,0.5-0.2,1.5-0.4,2.1h-2v-1.4
					c0-1.2-0.3-1.6-0.7-1.6c-0.4,0-0.8,0.3-1.1,0.8v12.6h-2.8V155.4z"/>
				<path fill="#004071" d="M333.2,150.5h2.8v20.2h-2.8V150.5z"/>
				<path fill="#004071" d="M340.1,164.4v-2.9c0-5.8,2.8-6.3,4.4-6.3c2,0,3.8,1.1,3.8,4.8c0,1.2-0.1,2.6-0.4,3.6H343v1.6
					c0,2.7,0.4,3.6,1.6,3.6c0.7,0,1.3-0.5,1.3-2.1v-0.5h2.3v0.6c0,2.9-1.4,4.2-4,4.2C341.6,170.9,340.1,169,340.1,164.4z
					 M345.8,161.7c0-0.3,0-1.2,0-1.6c0-2-0.5-2.8-1.4-2.8c-1,0-1.5,0.8-1.5,3.5v0.9H345.8z"/>
				<path fill="#004071" d="M352,165.8h2c0,2.2,0.4,2.9,1.6,2.9c0.8,0,1.2-0.6,1.2-1.2c0-0.7-0.4-1.2-1-1.9l-2-2.4
					c-1.1-1.3-2-2.7-2-4.5c0-2.4,1.8-3.5,3.7-3.5c2.2,0,3.6,1.1,3.6,3.2c0,0.7-0.2,1.4-0.3,1.9h-1.9c0-2-0.2-3-1.4-3
					c-1,0-1.3,0.7-1.3,1.3c0,0.7,0.4,1.3,0.9,2l2.2,2.6c0.6,0.8,1.9,2.3,1.9,4.1c0,2.1-1.4,3.6-3.9,3.6c-2,0-3.7-0.8-3.7-3.4
					C351.7,166.8,351.9,166.2,352,165.8z"/>
				<path fill="#004071" d="M363.4,157.4h-1.2v-2h1.4l0.6-4h2v4h2.4v2h-2.4v9.7c0,1.3,0.6,1.6,1.2,1.6c0.5,0,1-0.1,1.3-0.4v1.6
					c-0.6,0.8-1.5,1-2.3,1c-1.6,0-3-0.7-3-4V157.4z"/>
				<path fill="#004071" d="M371.7,164.1v-2.4c0-5.9,2.4-6.5,4.3-6.5c1.8,0,4.2,0.5,4.2,6.5v2.4c0,5.9-2.4,6.7-4.2,6.7
					C374,170.9,371.7,170.2,371.7,164.1z M377.4,164.9v-3.8c0-2.9-0.4-3.8-1.4-3.8c-1.1,0-1.5,1-1.5,3.8v3.8c0,2.9,0.4,3.8,1.5,3.8
					C377,168.7,377.4,167.8,377.4,164.9z"/>
				<path fill="#004071" d="M384.2,155.4h2.2l0.3,1.6v0c0.9-1.4,2.1-1.8,3.2-1.8c1.8,0,2.8,1.3,2.8,3.7v11.7h-2.8v-11.6
					c0-1.3-0.4-1.8-1.2-1.8c-0.6,0-1.2,0.4-1.6,1v12.3h-2.8V155.4z"/>
			</g>
			<path fill-rule="evenodd" clip-rule="evenodd" fill="#231F20" d="M379,61.6c0,0-0.1,0-0.1,0.1C378.9,61.6,378.9,61.6,379,61.6
				L379,61.6z"/>
			<g>
				<path fill="#004071" d="M41.8,105.3h8.9l12.5,36.5H52.8l-1.9-6.7H39.6l-1.8,6.7h-8L41.8,105.3z M40.7,129.1h9.1l-4.7-14.9
					L40.7,129.1z"/>
				<path fill="#004071" d="M81.9,109.7h7.3v32.1h-7.3v-3.9c-1,2.1-3.7,4.4-7.4,4.4c-5.2,0-9.6-4.1-9.6-12.3
					c0-8.8,4.4-12.3,9.6-12.3c3.9,0,6.4,2.3,7.4,4V109.7z M72.8,130.1c0,3.9,1.6,6.4,4.6,6.4c2.9,0,4.5-2.5,4.5-6.4
					c0-4-1.7-6.5-4.5-6.5C74.4,123.5,72.8,126.1,72.8,130.1z"/>
				<path fill="#004071" d="M91.9,118.2h8.2l5,14.9l4.8-14.9h6.7l-9.1,23.6h-6.4L91.9,118.2z"/>
				<path fill="#004071" d="M137.6,134.1l1.4,5.4c-2,1.5-5.3,2.7-9.5,2.7c-7.2,0-12.1-4-12.1-11.7c0-9.1,5.3-12.9,11.7-12.9
					c6.2,0,10.3,3.6,10.3,10.8c0,0.9-0.1,2-0.3,2.8H125c0,3.8,1.9,5.7,5.2,5.7C133.3,137.1,136.1,135.7,137.6,134.1z M124.8,127.3
					h8.5c0.2-2.5-1-5.1-4-5.1C126.7,122.3,124.9,124.5,124.8,127.3z"/>
				<path fill="#004071" d="M158.7,141.9v-12.4c0-4.4-1.6-5.8-4-5.8c-2.1,0-4.1,1.5-4.1,5.8v12.4h-7.4v-23.6h7.4v3.8
					c0.6-1.6,2.8-4.3,7.1-4.3c4.8,0,8.4,2.4,8.4,10.9v13.3H158.7z"/>
				<path fill="#004071" d="M179.6,133.3c0,1.7,0.6,2.8,2.2,2.8c1.7,0,3.4-1.4,4-2.1v6.7c-1.6,1.1-4.2,1.7-6.2,1.7
					c-5.3,0-7.4-2.8-7.4-7.9v-11.4h-3.7v-4.8c4.6,0,6.5-0.5,6.7-7.3h4.4v7.3h6.5v4.8h-6.5V133.3z"/>
				<path fill="#004071" d="M196.6,118.2v12.6c0,4.4,1.5,5.6,3.9,5.6c2.2,0,4.2-1.4,4.2-5.6v-12.6h7.4v23.6h-7.4v-3.8
					c-0.7,1.8-2.9,4.3-7.1,4.3c-4.7,0-8.4-2.1-8.4-10.6v-13.4H196.6z"/>
				<path fill="#004071" d="M217,118.2h7.4v4.4c1.2-3.4,3.6-4.9,8.3-4.9l0,7.1c-0.8-0.4-2.6-0.7-3.5-0.7c-3.5,0-4.8,2.7-4.8,6.7v11
					H217V118.2z"/>
				<path fill="#004071" d="M254.2,134.1l1.4,5.4c-2,1.5-5.3,2.7-9.5,2.7c-7.2,0-12.1-4-12.1-11.7c0-9.1,5.3-12.9,11.7-12.9
					c6.2,0,10.3,3.6,10.3,10.8c0,0.9-0.1,2-0.3,2.8h-14.1c0,3.8,1.9,5.7,5.2,5.7C249.9,137.1,252.7,135.7,254.2,134.1z M241.4,127.3
					h8.5c0.2-2.5-1-5.1-4-5.1C243.3,122.3,241.5,124.5,241.4,127.3z"/>
				<path fill="#004071" d="M298.8,109.9l-3.6,7.2c-2.4-3.3-5.6-4.9-8.6-4.9c-6.1,0-9.1,4.8-9.1,11.5c0,6.2,3.2,11.3,9.3,11.3
					c3.1,0,6.1-1.7,8.5-4.9l3.6,7.2c-3.4,3.3-8,5.1-13.3,5.1c-11,0-17.2-8.3-17.2-18.7c0-10.6,6.1-18.9,17.2-18.9
					C290.8,104.8,295.4,106.6,298.8,109.9z"/>
				<path fill="#004071" d="M300.9,130.1c0-7.3,4.4-12.4,12.2-12.4c7.7,0,12.1,5.1,12.1,12.4c0,7.2-4.4,12.3-12.1,12.3
					C305.3,142.3,300.9,137.3,300.9,130.1z M317.5,130.1c0-3.9-1.6-6.4-4.4-6.4c-3,0-4.5,2.5-4.5,6.4c0,3.8,1.6,6.4,4.5,6.4
					C315.9,136.5,317.5,133.9,317.5,130.1z"/>
				<path fill="#004071" d="M329,120.9c2.3-1.3,6.1-3.2,10.9-3.2c6.5,0,8.8,3.3,8.8,9v8c0,1.1,0.3,1.7,1.1,1.7s1.7-0.6,1.7-0.6
					l-0.2,5.5c0,0-2.3,0.9-5,0.9c-3,0-4.1-1.3-4.5-3.8c-1.1,1.2-3.6,3.8-7.8,3.8c-3.9,0-6.6-2.3-6.6-6.4c0-4.3,3-6,7.9-7.1l4.2-1
					c1.6-0.4,2.2-0.9,2.2-2c0-1.8-1.1-2.5-2.8-2.5c-2.9,0-6.3,1.6-8.7,3.7L329,120.9z M337.1,137.3c1.4,0,3.1-0.9,4.3-2.6v-4.5
					c-0.3,0.4-0.9,0.7-1.7,0.9l-2.2,0.7c-2,0.7-2.8,1.4-2.8,3C334.7,136.4,335.6,137.3,337.1,137.3z"/>
				<path fill="#004071" d="M365.8,135.7c0-1.1-0.7-1.9-2.8-2.5l-3.2-0.8c-4.7-1.1-6.2-3.7-6.2-6.9c0-3.5,1.9-7.9,9.4-7.9
					c3.7,0,7.4,1,9.7,2.6l-1.4,4.8c-1.8-1.7-5.2-3.2-7.6-3.2c-2,0-3,1.1-3,2.5c0,1,0.6,1.8,2.7,2.3l3.2,0.8c4.6,1.1,7.2,3.1,7.2,7
					c0,4.5-3.6,7.9-10.4,7.9c-4.6,0-7.9-1.4-10.2-3.3l1.6-4.7c1.8,1.8,5.1,3.8,7.9,3.8C364.6,138.2,365.8,137.2,365.8,135.7z"/>
				<path fill="#004071" d="M386.3,133.3c0,1.7,0.6,2.8,2.2,2.8c1.7,0,3.4-1.4,4-2.1v6.7c-1.6,1.1-4.2,1.7-6.2,1.7
					c-5.3,0-7.4-2.8-7.4-7.9v-11.4h-3.7v-4.8c4.6,0,6.5-0.5,6.7-7.3h4.4v7.3h6.5v4.8h-6.5V133.3z"/>
			</g>
			<g>
				<path fill="#D84129" d="M142.4,163.4c0,0-1.2,3.8-5.8,4.1c-4.6,0.3-7.6-6.5-11.6-7.1c-3-0.5-5.7,2-5.7,2s1.9-4.5,6.5-3.7
					c4.6,0.8,7.3,6.7,10.7,7.2C139.9,166.4,142.4,163.4,142.4,163.4z"/>
				<path fill="#D84129" d="M126.9,157.9c0,0,2-0.1,3.9,1.5c2.1,1.8,3.2,3.7,5,3.7c1.8,0,2-0.9,2-0.9s-1.5,0.7-2.6-0.2
					c-1.2-0.9-2.1-2.7-4.1-3.9C128.9,156.7,126.9,157.9,126.9,157.9z"/>
				<path fill="#D84129" d="M127.6,163.7c0,0-1.2-1.5-2.9-1.7c-3.2-0.3-3.4,2.1-3.4,2.1s0.7-1.1,3.1-1.2
					C126.4,162.8,127.6,163.7,127.6,163.7z"/>
			</g>
			<g>
				<path fill="#D84129" d="M283.3,163.4c0,0-1.2,3.8-5.8,4.1c-4.6,0.3-7.6-6.5-11.6-7.1c-3-0.5-5.7,2-5.7,2s1.9-4.5,6.5-3.7
					c4.6,0.8,7.3,6.7,10.7,7.2C280.7,166.4,283.3,163.4,283.3,163.4z"/>
				<path fill="#D84129" d="M267.8,157.9c0,0,2-0.1,3.9,1.5c2.1,1.8,3.2,3.7,5,3.7c1.8,0,2-0.9,2-0.9s-1.5,0.7-2.6-0.2
					c-1.2-0.9-2.1-2.7-4.1-3.9C269.7,156.7,267.8,157.9,267.8,157.9z"/>
				<path fill="#D84129" d="M268.4,163.7c0,0-1.2-1.5-2.9-1.7c-3.2-0.3-3.4,2.1-3.4,2.1s0.7-1.1,3.1-1.2
					C267.3,162.8,268.4,163.7,268.4,163.7z"/>
			</g>
		</g>
	</g>
</g>
</svg>
