<?xml version="1.0" encoding="utf-8"?>
<!-- Generator: Adobe Illustrator 25.2.1, SVG Export Plug-In . SVG Version: 6.00 Build 0)  -->
<svg version="1.0" id="Layer_1" xmlns="http://www.w3.org/2000/svg" xmlns:xlink="http://www.w3.org/1999/xlink" x="0px" y="0px"
	 viewBox="0 0 417.6 140.4" enable-background="new 0 0 417.6 140.4" xml:space="preserve">
<g>
	<path fill="#FFFFFF" d="M56.7,72.9c-0.7-0.4-1.1-0.6-1-2.6c0.2-2,2.1-12.3,2.5-14.4c0.4-2.1,0.7-3.2,1.5-3c0.8,0.2,2.3,1,2.1,2.2
		c-0.1,1.2-0.3,2.1-0.3,2.1s1.6-2.9,4.1-2.5c3.4,0.5,3.1,5.9,1.8,5.8c-1.1-0.1-0.2-2.4-2-2.8c-2.5-0.5-4.7,4.7-5.8,11.3
		c-0.5,3-1.1,4.1-1.5,4.3C57.8,73.4,57.3,73.2,56.7,72.9z"/>
	<path fill="#FFFFFF" d="M84.1,62.9c-0.4-0.2-2.4,2.4-5,4.7c-2.6,2.3-5,3.6-6.2,3.2c-1-0.4-0.8-2.7-0.6-3.8c0.2-1,0.5-2.4,1.1-2.8
		c0.6-0.4,3.3-1.1,4.9-3.3c1.7-2.2,2-4.7,0.7-5.6c-2-1.4-3.6-0.8-4.5-0.4c-0.8,0.4-3.9,3.2-5.3,7.4c-1.4,4.3-0.9,7.4-0.3,8.5
		c1,2.1,3.1,3.6,6,2.8c4.1-1.1,7.5-6.7,8.6-8.6C83.5,65,84.5,63.2,84.1,62.9z M74.5,59.1c1-1.5,2.4-2.8,2.9-2.5
		c0.2,0.1,0.3,1.2-0.9,3c-1.2,1.8-3,2.7-3.1,2.5C73.2,61.9,73.5,60.6,74.5,59.1z"/>
	<path fill="#FFFFFF" d="M102.7,60.1c-0.5-0.1-1.4,0.5-3.2,1.4c-1.9,0.9-2.8,1.5-2.8,1.5s0.5-4.9,0-6c-0.5-1.1-1.5-1.5-2.2-1.5
		c-0.7,0-2,2.3-4.8,5.6c-2.7,3.1-4.8,4.4-5,4.1c-0.2-0.2,0.6-2.7,1.8-4.7c1.2-2,2.5-3.2,3.7-3.1c0.6,0,1.2,0.9,1.5,0.6
		c0.5-0.7-0.5-2.3-2.5-2.5c-0.7-0.1-2.3,0.1-4.3,3c-2,2.9-2.8,5.2-2.7,6.5c0.1,1.4,1.3,2.7,2.5,2.8c1.2,0.1,2.6-0.6,5-3
		c2.5-2.6,4.1-5,4.1-5s-0.5,5.4-0.8,5.9c-0.3,0.4-5.2,5.3-9.6,11.4c-2,2.8-3.4,5.4-4.4,7.4h2.7c0.8-1.7,2-3.7,3.7-6
		c3.1-4.4,5.5-7.2,7.2-9.1c0,0-1.1,9.7-4,16c1.3-0.7,2.8-1.1,4.6-1.3c0.4-1.2,0.8-2.5,1.1-3.9c2.2-10,2.1-13.9,2.2-14.3
		c0.2-0.5,1.1-1.1,3.4-2.5c2-1.2,3.4-2.1,3.5-2.3C103.4,60.9,103.1,60.2,102.7,60.1z M81,93.1l-0.8,2.1c0.3,0.1,0.6,0.2,0.9,0.3
		c0.5,0.1,1.1,0.1,1.7,0c0.1-1.1,0.3-2.2,0.6-3.2C82.3,93,81.5,93.2,81,93.1z"/>
	<path fill="#FFFFFF" d="M106.3,55c-1,0.3-3.2,3.2-4.4,8.3c-1.2,5.1-0.4,6.7,0.3,7.5s3.5,2.2,5.7,1.5c2.2-0.7,3.1-3.9,3.4-4.8
		c0.3-0.9,1-3.6,1.1-3.8c0.2-0.2,0.9-0.1,2.3-0.4c1.7-0.4,3.2-1.3,3.9-1.9c0.7-0.7,0.6-0.8,0.4-1c-0.2-0.2-0.8-0.7-1.6-0.3
		c-0.8,0.4-1.3,0.8-2.4,1.1c-1,0.3-2.2,0.6-2.5,0.4c-0.2-0.2-0.1-1.2-1.1-1.8c-1.2-0.7-3.1,0.3-3.5,1.1c-0.3,0.5-0.2,1.1-0.1,1.4
		c0.2,0.4,0.6,0.6,1,0.8c0.6,0.3,0.8,0.4,0.9,0.6c0.1,0.3-0.5,2.4-1.2,3.8c-0.6,1.5-1.7,3.2-2.5,3.1c-0.8-0.2-1.2-2.2-0.3-6.3
		c0.8-4.1,2.8-7.5,3.1-8c0.3-0.5,0.2-0.8-0.2-1C108,55,107,54.8,106.3,55z"/>
	<path fill="#FFFFFF" d="M119.3,55.6c-0.7,0.2-2,2.9-2.5,7.7c-0.3,2.6-0.2,3.9,0,4.6c0.2,0.6,0.4,1,0.9,1.6c0.7,0.7,1.2,1.2,2.3,0.9
		c1.1-0.3,2.4-3.3,4.2-6.3c2.5-4.2,4.4-5.7,4.4-5.7s-1.1,2.8-2.1,7s-1,5.8-0.8,7s1.4,2.7,2.8,2.9c1.3,0.1,3.4-0.7,6.5-6.8
		c3.2-6.3,5.2-7.9,5.4-8.2c0.2-0.5-0.8-1.3-1.2-1.1c-0.5,0.2-2.5,2.3-5.5,7.7c-2,3.6-3.8,5.6-4.4,5.4c-0.5-0.2,0-2.6,0.9-6.1
		s2.1-8.1,1.7-9.2c-0.5-1.2-2.1-1.5-2.8-1.2c-0.7,0.2-2.9,2.1-4.9,4.9c-1.8,2.5-3.3,5.1-3.5,5c-0.2-0.1-0.1-1.7,0.4-3.7
		c0.6-2.2,1.8-4.1,1.2-4.9C121.6,56,120.3,55.3,119.3,55.6z"/>
	<path fill="#FFFFFF" d="M140,50.2c-0.6,0.3-0.8,0.7-0.8,2.1c0,1.4,0.2,4.6,0.2,4.6s0.2,0.3,1,0.2c0.7-0.1,1.3-1.4,1.5-2.6
		c0.2-1.2,0.2-2.1,0.4-2.8c0.1-0.7,0.4-1.3,0-1.5C141.9,49.8,140.6,49.9,140,50.2z"/>
	<path fill="#FFFFFF" d="M146.3,70.7c-0.2,0.6-2.2,1.6-3.5,2.7c-1.2,1.1-1.4,2.3-1.2,3c0.2,0.7,2,2.4,4.9,0.2
		c2.6-1.9,2.8-4.8,3.3-5.5c0.5-0.7,2.4-2.2,4.2-3.3c1.8-1.1,4-2.5,4.3-2.9c0.3-0.4-0.3-1.3-1.5-1.1c-1.2,0.2-2.8,1.5-4.1,2.5
		c-1.3,1-2.7,1.9-2.9,1.8c-0.2-0.1-0.7-1.5-1.7-2.8s-2.2-2.2-2.2-3.5c0-1.3,1-3.3,2.2-4.7c1.2-1.4,2.9-2.5,3.9-2
		c1,0.5,0.2,2.3,0,2.9c-0.1,0.6,0.1,0.8,0.6,0.9c0.5,0.1,1.3,0,2-1c0.7-1,1-2.9,0.6-3.8c-0.4-0.9-2.1-2.2-4.8-2.1
		c-2.7,0.1-5,2.4-6.3,4.2s-2.1,3.6-1.6,5.8c0.5,2.2,2.2,3,3.2,4.5C146.6,68.1,146.7,69.6,146.3,70.7z"/>
	<path fill="#FFFFFF" d="M51,38.1c-2.2-1.8-4.5-2.2-7.7-1.8c-3,0.4-6.7,2.4-8.5,5.9c-1.8,3.4-1.5,4.9-1.5,4.9s-7,9-5.7,21.4
		c0.5,4.5,2.8,9.2,8.7,9.4c5.8,0.2,12.5-5.1,16.1-14.4C57.3,50.8,55.6,41.9,51,38.1z M45.4,68.6c-4.1,6.3-7.7,7-9.9,6
		c-2.2-1-4.3-4-3.7-11.2c0.6-7.2,2.8-10.9,2.8-10.9s0.6,1.5,2.6,2.3c1.9,0.7,3.3,0.1,3.2-0.6c-0.1-0.7-1.8-0.9-2.6-3
		c-0.8-2.1-0.4-3.8-0.4-3.8s0.5-1.6,3.1-3.6c2.3-1.8,4.3-2.1,5.3-2.4c0.6-0.2,0.9-0.5,0.8-0.8c-0.2-0.7-1.4-0.7-3.3-0.4
		c-1.9,0.4-3.3,1.2-3.3,1.2s3.3-4,7.5-2.6c1.6,0.5,3,1.8,3.7,7.3C51.8,51.5,49.5,62.3,45.4,68.6z"/>
	<path fill-rule="evenodd" clip-rule="evenodd" fill="#FFFFFF" d="M381.9,96.4c-3,3.3-7.6,7-10.4,7.3c-0.2,0-0.4,0-0.6,0
		c0.2-0.2,0.4-0.3,0.6-0.5c1.8-1.7,4.4-4.5,6.8-8.2c0.5,0.4,0.8,0.9,1.5,1.2C380.4,96.7,381.3,96.6,381.9,96.4z"/>
	<path fill-rule="evenodd" clip-rule="evenodd" fill="#FFFFFF" d="M372.8,86c3,2.6,4.1,5.3,6.1,8.2c1.5,2.3,4.7,0.8,4-1.4
		c-1.1-3.5-5.2-5.9-8-9.3c-0.3,1-1,2.1-1.9,2.4C372.9,85.9,372.8,86,372.8,86z"/>
	<path fill-rule="evenodd" clip-rule="evenodd" fill="#FFFFFF" d="M373.5,82.7c0,0.9-0.5,2.1-1.4,2.4c-0.5,0.2-1.1,0.2-1.7,0.2
		c-0.3-1.5-0.8-3.2-1.4-5.1c1.3,0.2,2.5,0.6,3.5,1.1C373.4,81.8,373.5,82.3,373.5,82.7z"/>
	<path fill-rule="evenodd" clip-rule="evenodd" fill="#FFFFFF" d="M307.5,20.3c-0.6-4.3-0.6-9.1,2.3-11.8c-0.3,2.2-0.3,5.8,1.4,11
		c-0.2-0.1-0.4-0.2-0.6-0.2C309.6,19.1,308.3,19.7,307.5,20.3z"/>
	<path fill-rule="evenodd" clip-rule="evenodd" fill="#FFFFFF" d="M410,61.6c3.4-2.6,7-5.9,6.8-9.9c-1.4,1.7-4,4.3-8.8,6.7
		c0.2,0.1,0.4,0.2,0.6,0.3C409.3,59.2,409.9,60.6,410,61.6z"/>
	<path fill-rule="evenodd" clip-rule="evenodd" fill="#FFFFFF" d="M297.5,36.3c-5.3-0.5-11.1-0.7-13.1,1.9c2.5-0.2,6.6-0.2,12.5,1.2
		C296.4,38.5,296.9,37.1,297.5,36.3z"/>
	<path fill-rule="evenodd" clip-rule="evenodd" fill="#FFFFFF" d="M405.4,79.6c4.1,3.4,8.3,7.5,7.9,10.7c-1.6-1.9-4.5-4.9-9.6-8
		C404.5,81.9,405.2,80.6,405.4,79.6z"/>
	<path fill-rule="evenodd" clip-rule="evenodd" fill="#FFFFFF" d="M395.3,93.3c1.1,4,1.7,8.6-0.8,11.1c-0.1-2.1-0.6-5.6-2.7-10.2
		c0.1,0,0.2,0.1,0.3,0.1C393.1,94.4,394.5,93.9,395.3,93.3z"/>
	<path fill-rule="evenodd" clip-rule="evenodd" fill="#FFFFFF" d="M319.2,31.9c-4.5-5-6.3-10.9-8.7-11.5c-0.7-0.2-1.7,0.2-2.3,0.6
		c-0.7,0.5-0.7,0.7-0.5,1.4c0.6,2.9,4.8,5.7,8.3,11.6C316.2,33.3,317.9,31.8,319.2,31.9z"/>
	<path fill-rule="evenodd" clip-rule="evenodd" fill="#FFFFFF" d="M393.5,61.4c6.8-0.3,12.2-3.1,14.3-1.9c0.6,0.4,1,1.3,1.2,2.1
		c0.1,0.8,0,1-0.7,1.4c-2.5,1.6-7.4,0.6-14.1,2.2C394.6,64.5,394.4,62.2,393.5,61.4z"/>
	<path fill-rule="evenodd" clip-rule="evenodd" fill="#FFFFFF" d="M315.8,41.4c-0.5,0.4-1.2,1.1-1.5,1.8c-1.7-0.1-3.4-0.1-5.2-0.1
		c-5.3-1.7-10.3-1.9-11.3-3.6c-0.3-0.6,0-1.7,0.4-2.5c0.5-1,0.8-1.1,1.8-1C303.5,36.1,307.6,39.9,315.8,41.4z"/>
	<path fill-rule="evenodd" clip-rule="evenodd" fill="#FFFFFF" d="M387,74.2c7.8,1.9,13.5,8.4,16.1,7.7c0.6-0.2,1.2-1.2,1.5-2
		c0.4-1,0.2-1.3-0.6-2c-2.5-2.4-8.1-2.7-14.9-7.4c0.1,1-0.1,2.5-0.8,3.2C388,73.9,387.5,74.1,387,74.2z"/>
	<path fill-rule="evenodd" clip-rule="evenodd" fill="#FFFFFF" d="M382.5,81.1c5.4,5,7.1,11.5,9.8,12.1c0.6,0.1,1.5-0.1,2.1-0.5
		c1.1-0.6,1.1-1,0.7-2.1c-1.1-2.9-5.9-5.9-9.2-12.7c-0.2,1.1-0.6,2.4-1.3,2.8C384,81,383.3,81.2,382.5,81.1z"/>
	<path fill-rule="evenodd" clip-rule="evenodd" fill="#FFFFFF" d="M325.2,44.5c-0.2,0-0.4-0.1-0.6-0.1c-3.5-4.3-6.8-6.5-7.6-9.1
		c-0.2-0.7,0.1-1.2,0.4-1.4c0.5-0.6,1.3-1,2.1-0.9c1.9,0.4,2.6,3.2,5.9,7.2C325.1,41.5,325.1,43,325.2,44.5z"/>
	<path fill-rule="evenodd" clip-rule="evenodd" fill="#FFFFFF" d="M393.4,64.1c0,0.3-0.1,0.9-0.8,1.2c-2.1,1.1-7.3,0.6-12.5,0.9
		v-0.1c0.5-0.6,0.8-1.2,1.1-1.8c0.3-0.5,0.5-1.1,0.6-1.6c4.8-0.6,9.2-1.8,10.7-0.7C393.2,62.4,393.4,63.3,393.4,64.1z"/>
	<path fill-rule="evenodd" clip-rule="evenodd" fill="#FFFFFF" d="M320.2,43.7c-1.5-0.2-3.1-0.3-4.7-0.4c0.2-0.4,0.5-0.8,0.8-1
		c0.3-0.3,0.6-0.5,1.6-0.1C318.8,42.6,319.4,43.1,320.2,43.7z"/>
	<path fill-rule="evenodd" clip-rule="evenodd" fill="#FFFFFF" d="M387.4,73c-1.9,1.5-6.9-0.9-13.8-0.6c0.9-0.7,1.7-1.3,2.5-2
		c0.3-0.3,0.6-0.5,0.9-0.8l0,0c0.1-0.1,0.3-0.3,0.4-0.4c0.1-0.1,0.1-0.1,0.2-0.2c5,0.2,7-0.4,9.4,0.6c1,0.4,1,0.7,1.1,1.2
		C388.2,71.5,388,72.5,387.4,73z"/>
	<path fill-rule="evenodd" clip-rule="evenodd" fill="#FFFFFF" d="M384.5,77.6c0,1-0.4,2.1-1.5,2.3c-1.6,0.3-7.9-0.4-14.6-1.1
		c-0.3-0.9-0.7-1.7-1-2.6c0.1,0,0.1-0.1,0.2-0.1l0.1,0c0,0,0.1,0,0.1-0.1l0,0c0.4-0.2,0.8-0.5,1.2-0.7h0c5.7,0,11.1-0.4,13.9,0.3
		C384.6,76.1,384.6,77.3,384.5,77.6z"/>
	<path fill-rule="evenodd" clip-rule="evenodd" fill="#FFFFFF" d="M330.4,32c0,0-0.1,0-0.1,0.1c-0.1,0-0.2,0.1-0.3,0.2
		c-2,1.2-3.4,2.8-4.1,4.8c0,0.1,0,0.1-0.1,0.2c-1.2-3.1-2.2-4.7-0.6-6.3C326.4,29.7,328.3,29.7,330.4,32L330.4,32z"/>
	<path fill-rule="evenodd" clip-rule="evenodd" fill="#FFFFFF" d="M387.4,56.7c0,2.3-2,2.7-5.1,4.1c0,0,0,0,0,0c0-0.2,0-0.4,0-0.6
		c0-0.9-0.1-1.8-0.3-2.7c0.1-0.4,0.2-0.7,0.2-1c0.1-0.8,0.2-1.5,0.1-2.3C385.5,53.8,387.4,55.2,387.4,56.7z"/>
	<path fill-rule="evenodd" clip-rule="evenodd" fill="#FFFFFF" d="M365.5,8.8c-1.3-5.7-8.8-7.2-13.3-7.5c1,0.7,4.8,1.3,7.9,2.9
		c-2.1-0.7-4.4-1-6.4-1.2c-1.7-0.2-1.9,0.7-2,2.4c-0.2,2.2,0,3.2,0.6,3.5c0.4,0.3,1,0.1,2.1,0c4.2-0.3,9.8,0.2,11.5,3.9
		C366,11.3,365.9,10,365.5,8.8z"/>
	<path fill-rule="evenodd" clip-rule="evenodd" fill="#FFFFFF" d="M362.5,12.1c-0.2-0.2-0.9,0.8-1.1,0.8c-0.3,0-0.9-1.1-1.1-0.8
		c-0.2,0.3-0.7,0.7-1,0.7c-0.4,0-0.6-1-1-0.8c-0.3,0.2-0.8,0.6-1.1,0.5c-0.3,0-0.4-0.8-0.7-0.9c-0.3-0.1-0.9,0.6-1.2,0.5
		c-0.3-0.1-0.3-1-0.6-1.1c-0.4,0-1,0.5-1.4,0.4c-0.2-0.1-0.2-0.9-0.4-1c-0.3-0.2-0.8,0.3-1.1,0c-1.3-1.2-1.8-2.9-1.3-5.5
		c0.7-3.2,0.6-3.4-2.4-3.8c-1.1-0.1-2.2-0.2-3.3-0.2c4.3,0.9,4,2.1,3.4,5.1c-0.4,2,0.2,3.7,1,4.8c0.5,0.7,2.3,1.7,5,2.4
		c-1.8-0.3-3.6-0.7-5.2-0.9c-1.5-1.1-2.3-2.4-2.4-4.1c-0.2-2.9,0.2-3.1-2.8-3.8c-4.3-1.1-9,1-12,4c0.9-2.3,2.8-4.7,4.3-5.8
		c-3.8,1.5-6.6,4-7.5,7.2c-0.1,0.4-0.2,0.8-0.2,1.1c-0.6-0.4-1.3-0.6-1.9-0.6c-0.6,0-1.4,0.3-2.1,1c0.2-0.1,0.5-0.1,0.7-0.1
		c1.2,0.2,2.6,1.2,3.7,2.2c0,0.2-0.1,0.3-0.1,0.5c0,0.1,0,0.3,0,0.4c-0.4-0.2-0.8-0.3-1.2-0.3c-2.5-0.2-6.2,6-4.7,10.7
		c-1.1-1-1.9-5.8-0.4-10.1c-2.5,4.8-1.9,9.8-0.3,11.6c0.7,0.8,1.2,0.7,1.9,0.6c0.7,0.5,2,0.2,3.3,0.6c1.5,0.5,3.3,1.8,3.5,0.3
		c0.2-1.5,0.2-2,1.1-3.9c0.7-1.6,3-2.5,1.5-5.1c-0.1-0.2-0.2-0.4-0.3-0.6c4.9,1.4,12.7,0.8,16.7-0.8c0.8-0.3,10.2,1.6,11.9-1.7
		c-0.4,0-0.8-0.1-1.2-0.1c1.7-0.3,3.3-1,4.7-2.5C364.9,12.9,363.6,13,362.5,12.1z M352.6,13.8c3.1,0.2,6.7,0.6,8.5,0.1
		c0.5,0,1.1,0,1.6,0c-1.8,0.7-5.5,0.4-8.9,0.3C353.3,14.1,352.9,14,352.6,13.8z"/>
	<path fill-rule="evenodd" clip-rule="evenodd" fill="#FFFFFF" d="M382.5,20.7c1.2,1.4,1,2.4,2.8,1c0.5-0.4,1.1-1,1.6-1.5
		c1.2-1.5,1.6-2.1,0.2-3.2c-1.9-1.6-4.2-3.3-6.7-4.2c3.9,0.8,7.8,3.7,9.1,4c-3.5-3.1-10.1-7.5-15.2-3.8c-1,0.5-1.9,1.3-2.8,2.4
		C375.4,14,379.8,17.5,382.5,20.7z"/>
	<path fill-rule="evenodd" clip-rule="evenodd" fill="#FFFFFF" d="M402.1,46c-0.9-1.6-3.6-2.6-5.6-3c0.3-0.4,0.6-0.9,0.8-1.4
		c1.6,0,3.4,0.3,4.4,1.1c0.2,0.1,0.3,0.3,0.4,0.6c0-1-0.3-1.8-0.8-2.2c-0.5-0.5-1.2-0.8-2-1c0.2-0.2,0.5-0.5,0.7-0.8
		c1.7-2.8,1.5-5.3,0.3-8.5c0.2,1.8-0.5,5.2-2.1,7.1c0.1-0.8,0-1.6,0-2.4c0.2-0.2,0.4-0.5,0.5-0.8c-0.2,0.2-0.4,0.3-0.6,0.4
		c-0.4-3.7-2.2-7.5-5.3-9.6c-2.6-1.7-2.5-1.3-4.6,0.5c-0.8,0.7-1.7,1-2.7,1.1c-1-0.8-2.4-1.7-3.8-2.5c1.4,0.6,2.5,0.9,3.1,0.8
		c1.4-0.2,3-0.9,4.2-2.6c0.9-1.3,0.9-1.5,2-1.8c0.9-0.2,4.4,1.9,7,4.3c-1.5-2.5-4.5-5.2-5.4-5.8c-2.4-1.8-2.6-1.7-4.4,1
		c-1.5,2.2-3.1,3.1-4.9,3c-0.3,0-0.4-0.7-0.7-0.8c-0.2-0.1-0.7,0.5-1,0.4c-0.3-0.1-0.4-1-0.7-1.3c-0.2-0.2-0.9,0.5-1.2,0.3
		c-0.2-0.1-0.2-1.1-0.5-1.2c-0.2-0.2-0.9,0.3-1.1,0.1c-0.3-0.2-0.3-0.9-0.4-1.2c-0.1-0.3-1,0.1-1.3-0.1c-0.3-0.2-0.3-0.8-0.2-1.2
		c0-0.3-1.1,0-1.4-0.2c-0.2-0.2,0.1-1.3-0.2-1.3c-1.4-0.1-2.3-1.1-2.6-1.4c-0.1,2,0.6,3.7,1.5,5.1c-0.4-0.3-0.7-0.6-1.1-1
		c-1.2,3.5,6.7,9.3,7,10.1c1.6,4.3,6.9,10.9,11.4,13.4c-0.1,0.9-0.1,1.8-0.4,2.6c-0.5,1.4-0.9,2.5-1.5,3.4c-0.1,0.2-0.2,0.3-0.3,0.5
		c-0.2,0.2-0.5,0.4-0.8,0.6c-1.3,1,0.7,1.9,1.8,3.1c1.1,1.2,1.3,2.8,2.3,2.9C398,57.1,403.6,48.6,402.1,46z M373.2,18.2
		c1.2,1.3,2.5,2.5,3.8,3.5c-1.3-0.9-2.4-1.7-3-2.4c1,2.1,6,5.2,8.7,7.5c-0.8-0.3-1.6-0.6-2.5-1.1C377.5,23,374.2,20.2,373.2,18.2z"
		/>
	<path fill-rule="evenodd" clip-rule="evenodd" fill="#FFFFFF" d="M331.8,31.3c-0.5,0.2-0.9,0.4-1.3,0.6c-1.9-3.5-6.6-4-6.7,0.2
		c-0.5-1.6-0.6-2.8,0.5-3.9C326.8,25.7,330.4,28.9,331.8,31.3z"/>
	<path fill-rule="evenodd" clip-rule="evenodd" fill="#FFFFFF" d="M390,55.6c0,1.5-0.9,2.3-2.5,3.1c2.8-3-0.6-6-4.3-5
		c0-0.5-0.1-0.9-0.2-1.4C385.7,51.7,390,52.2,390,55.6z"/>
	<path fill-rule="evenodd" clip-rule="evenodd" fill="#FFFFFF" d="M359.5,35c-11.8-3.5-25.6-3.2-27.9,3c-0.6,1.6-0.7,4.1-0.5,6.9
		c0,0.3,0.1,0.7,0.1,1.1c-0.1,0-0.2-0.1-0.3-0.1c-1.6-0.4-3.2-0.8-4.9-1.2c-0.2-3,0-5.6,0.7-7.4C329.8,29,345.2,29,359.5,35z"/>
	<path fill-rule="evenodd" clip-rule="evenodd" fill="#FFFFFF" d="M381.3,56.3c1-6.2-3.9-10.7-9.7-14.1c3.1,2.5,5.6,5.4,6.3,8.7
		c0.1,0.3,0.1,0.6,0.1,0.8c-0.2-0.3-0.5-0.6-0.7-0.8c-0.7-0.8-1.5-1.5-2.3-2.2c-0.2-0.2-0.5-0.4-0.7-0.6c-2.7-2.1-5.7-4-8.7-5.3
		c-3.2-1.5-5.5-2.4-8.8-3.7c-9.3-3.5-21.8-4.9-25.1,4.1c-0.2,0.5-0.3,1-0.5,1.7c-0.1,0.3-0.1,0.6-0.2,1c0.1,0,0.2,0.1,0.3,0.1
		c16.7,4.8,26.2,13.8,31.6,21.8c0.8,1.3,1.6,2.5,2.2,3.7c0.1,0.3,0.3,0.5,0.4,0.8c0.6,1.1,1.1,2.1,1.5,3.2c0.1,0,0.1-0.1,0.2-0.1
		c0,0,0.1,0,0.1-0.1c0,0,0,0,0,0c1.6-0.9,3.1-1.8,4.6-2.9c1.2-0.9,2.4-1.8,3.5-2.7c0.3-0.3,0.6-0.5,0.9-0.8c0.2-0.1,0.3-0.3,0.5-0.4
		c0.7-0.7,1.4-1.3,1.9-2c0.2-0.2,0.4-0.4,0.5-0.6c0,0,0,0,0,0c0.5-0.7,0.9-1.3,1.2-1.9c0.5-1,0.8-2.1,0.9-3.1c0-0.3,0-0.5,0-0.8v0
		c0-0.9-0.1-1.8-0.3-2.7C381.2,57,381.3,56.7,381.3,56.3z"/>
	<path fill-rule="evenodd" clip-rule="evenodd" fill="#FFFFFF" d="M348.9,27.4c-0.1,0.9-0.1,1.2-0.3,3.1c-0.6-0.1-2.7-0.5-3.4-0.5
		c0.2-1.1,0.3-1.7,0.6-2.4c0.1,0.3,0.4,0.5,0.7,0.6c0.7,0.3,1.5,0,1.8-0.7c0.3-0.7,0-1.5-0.7-1.8c-0.2-0.1-0.3-0.1-0.5-0.1
		c0.3-0.1,0.5-0.1,0.8-0.1C348.5,25.6,349,26.1,348.9,27.4z"/>
	<path fill-rule="evenodd" clip-rule="evenodd" fill="#FFFFFF" d="M375.5,39.6c-0.4,0.8-0.5,1.1-1.5,2.7c-0.5-0.3-2.3-1.5-2.9-1.7
		c0.8-1.3,1.2-1.8,2-2.6c0,0,0.1-0.1,0.1-0.1c0,0.4,0.1,0.8,0.4,1c0.5,0.5,1.4,0.5,1.9,0c0.2-0.2,0.3-0.3,0.3-0.5
		C375.8,38.7,375.8,39.1,375.5,39.6z"/>
	<path fill="#FFFFFF" d="M374.5,36.6c0.3,0,0.7,0.1,0.9,0.4c0.5,0.5,0.5,1.4,0,1.9c-0.3,0.3-0.6,0.4-1,0.4c-0.3,0-0.7-0.1-0.9-0.4
		c-0.5-0.5-0.5-1.4,0-1.9C373.9,36.8,374.2,36.6,374.5,36.6 M374.5,36.3c-0.4,0-0.9,0.2-1.2,0.5c-0.6,0.6-0.6,1.7,0,2.3
		c0.3,0.3,0.7,0.5,1.1,0.5c0.4,0,0.9-0.2,1.2-0.5c0.3-0.3,0.5-0.7,0.5-1.2c0-0.4-0.2-0.8-0.5-1.2C375.4,36.5,375,36.3,374.5,36.3
		L374.5,36.3z"/>
	<path fill-rule="evenodd" clip-rule="evenodd" fill="#FFFFFF" d="M346.6,26.7c0.2,0.1,0.4,0,0.5-0.2c0.1-0.2,0-0.4-0.2-0.5
		c-0.2-0.1-0.4,0-0.5,0.2C346.3,26.4,346.4,26.6,346.6,26.7z"/>
	<path fill-rule="evenodd" clip-rule="evenodd" fill="#FFFFFF" d="M374,37.6c0.1,0.1,0.4,0.1,0.5,0c0.1-0.1,0.1-0.4,0-0.5
		c-0.1-0.1-0.4-0.1-0.5,0C373.9,37.2,373.9,37.5,374,37.6z"/>
	<path fill="#FFFFFF" d="M347,25.6c0.2,0,0.3,0,0.5,0.1c0.7,0.3,1,1.1,0.7,1.7c-0.2,0.5-0.7,0.8-1.2,0.8c-0.2,0-0.3,0-0.5-0.1
		c-0.7-0.3-1-1.1-0.7-1.7C345.9,25.9,346.4,25.6,347,25.6 M347,25.3c-0.7,0-1.3,0.4-1.5,1c-0.2,0.4-0.2,0.8,0,1.3
		c0.2,0.4,0.5,0.7,0.9,0.9c0.2,0.1,0.4,0.1,0.6,0.1c0.7,0,1.3-0.4,1.5-1c0.2-0.4,0.2-0.8,0-1.3c-0.2-0.4-0.5-0.7-0.9-0.9
		C347.4,25.3,347.2,25.3,347,25.3L347,25.3z"/>
	<path fill="#FFFFFF" d="M362.4,96.2c0,0-9.7-24-40.4-28.9c-17.1-2.7-42.8,3.1-69.1,7.1c-3-1.9-6.6-2.9-10.6-2.9
		c-5.5,0-10,2.1-13.1,5.8c-6.5,0.5-12.9,0.7-19.1,0.4c-36.6-1.7-50.3-17.9-50.8-18.4c0.5,0.4,12.9,10.9,45.7,11.4
		c41.1,0.6,92.8-16.6,120.7-10.4C359.6,67.7,362.4,96.2,362.4,96.2z"/>
	<path fill="#FFFFFF" d="M369.3,91.3c0,0-7.8-31-46.5-37.3c-31.3-5.1-82.7,13.6-126.3,10.6c-38.4-2.6-53.1-25.3-53.1-25.3
		s17.1,18.4,55.3,18c48.2-0.5,95.2-17.8,127-10.9C368.3,55.7,369.3,91.3,369.3,91.3z"/>
	<path fill="#FFFFFF" d="M0.8,129.1v-6.3c0-5.4,2.7-5.9,4.3-5.9c2.8,0,3.7,1.7,3.7,3.8c0,0.8-0.1,1.4-0.2,2.1H6.4v-0.9
		c0-2-0.4-2.9-1.3-2.9c-1,0-1.5,0.7-1.5,3v8.2c0,2.2,0.4,2.9,1.5,2.9c0.7,0,1.3-0.6,1.3-2.1v-1.7h2.5v1.7c0,2.9-1.3,4.2-3.8,4.2
		C3.4,135.1,0.8,134.5,0.8,129.1z"/>
	<path fill="#FFFFFF" d="M12,128.8v-2.3c0-5.6,2.2-6.1,4-6.1c1.7,0,4,0.5,4,6.1v2.3c0,5.6-2.3,6.3-4,6.3
		C14.2,135.1,12,134.5,12,128.8z M17.3,129.5v-3.5c0-2.7-0.3-3.6-1.3-3.6c-1,0-1.4,0.9-1.4,3.6v3.5c0,2.7,0.4,3.6,1.4,3.6
		C17,133.1,17.3,132.2,17.3,129.5z"/>
	<path fill="#FFFFFF" d="M23.4,128.8v-2.3c0-5.6,2.2-6.1,4-6.1c1.7,0,4,0.5,4,6.1v2.3c0,5.6-2.3,6.3-4,6.3
		C25.6,135.1,23.4,134.5,23.4,128.8z M28.7,129.5v-3.5c0-2.7-0.3-3.6-1.3-3.6c-1,0-1.4,0.9-1.4,3.6v3.5c0,2.7,0.4,3.6,1.4,3.6
		C28.4,133.1,28.7,132.2,28.7,129.5z"/>
	<path fill="#FFFFFF" d="M34.9,130.3h1.9c0,2.1,0.4,2.7,1.5,2.7c0.8,0,1.1-0.5,1.1-1.1c0-0.6-0.3-1.1-0.9-1.8l-1.9-2.3
		c-1-1.3-1.9-2.6-1.9-4.2c0-2.2,1.7-3.3,3.5-3.3c2.1,0,3.4,1,3.4,3c0,0.7-0.1,1.3-0.3,1.8h-1.8c0-1.9-0.2-2.8-1.3-2.8
		c-0.9,0-1.2,0.6-1.2,1.2c0,0.7,0.3,1.2,0.9,1.9l2.1,2.5c0.6,0.8,1.8,2.2,1.8,3.8c0,2-1.3,3.4-3.7,3.4c-1.9,0-3.5-0.8-3.5-3.2
		C34.6,131.3,34.8,130.7,34.9,130.3z"/>
	<path fill="#FFFFFF" d="M51.6,117.1h2.7c2.4,0,5.6,0.3,5.6,4v0.9c0,1.9-1.2,3.2-2.4,3.5v0.1c1.8,0.3,2.7,1.7,2.7,3.9v0.9
		c0,3.9-2.7,4.6-5.8,4.6h-2.8V117.1z M54.8,124.7c1.5,0,2.4-0.7,2.4-2.3v-0.7c0-1.7-0.6-2.6-2.4-2.6h-0.5v5.7H54.8z M55,133.1
		c1.4,0,2.4-0.8,2.4-2.4v-1.4c0-1.7-0.6-2.6-2.4-2.6h-0.8v6.4H55z"/>
	<path fill="#FFFFFF" d="M63,131.6c0-2.4,1.2-3.6,3.4-4.7c0.5-0.3,1.3-0.6,1.8-0.8v-1.9c0-1.1-0.1-2-1.2-2c-0.8,0-1.5,0.5-1.5,2.2
		v0.6h-2c-0.1-0.5-0.2-1-0.2-1.4c0-2.1,1.6-3.3,3.8-3.3c2.9,0,3.7,1.2,3.7,3.8v10.8h-2l-0.2-1.2c-0.6,0.8-1.6,1.4-2.8,1.4
		C64.1,135.1,63,133.6,63,131.6z M68.2,132.5V128c-0.3,0.1-0.6,0.3-1,0.5c-0.7,0.5-1.5,1.4-1.5,2.8c0,1.1,0.4,1.8,1.4,1.8
		C67.4,133.1,67.9,132.8,68.2,132.5z"/>
	<path fill="#FFFFFF" d="M77.2,135l-3.4-14.5h2.7l1.5,8l0.4,2.7h0.1l0.3-2.7l1.2-8h2.6l-3,14.9c-0.5,2.8-1.6,4.1-3.8,4.1
		c-0.4,0-0.9-0.1-1.4-0.3l0-1.6C76,137.9,77.1,137.1,77.2,135z"/>
	<path fill="#FFFFFF" d="M110.3,117.1h2.2l4.3,12h0.1c-0.1-1.1-0.3-2.7-0.3-5.4v-6.5h2.4v17.9h-2.2l-4.3-11.6h-0.1
		c0.1,1.3,0.3,2.8,0.3,6.4v5.2h-2.4V117.1z"/>
	<path fill="#FFFFFF" d="M123,128.8v-2.3c0-5.6,2.2-6.1,4-6.1c1.7,0,4,0.5,4,6.1v2.3c0,5.6-2.3,6.3-4,6.3
		C125.1,135.1,123,134.5,123,128.8z M128.3,129.5v-3.5c0-2.7-0.3-3.6-1.3-3.6c-1,0-1.4,0.9-1.4,3.6v3.5c0,2.7,0.4,3.6,1.4,3.6
		C127.9,133.1,128.3,132.2,128.3,129.5z"/>
	<path fill="#FFFFFF" d="M134.8,120.5h1.9l0.2,1.5c0.6-1.1,1.4-1.6,2.2-1.6c1.5,0,2.2,0.9,2.2,2.8c0,0.5-0.2,1.4-0.4,2h-1.8v-1.3
		c0-1.2-0.3-1.5-0.7-1.5c-0.4,0-0.8,0.3-1,0.8v11.9h-2.6V120.5z"/>
	<path fill="#FFFFFF" d="M144.8,122.4h-1.1v-1.9h1.3l0.5-3.7h1.9v3.7h2.3v1.9h-2.3v9.2c0,1.3,0.5,1.5,1.1,1.5c0.5,0,0.9-0.1,1.3-0.4
		v1.5c-0.6,0.7-1.5,0.9-2.2,0.9c-1.5,0-2.8-0.6-2.8-3.8V122.4z"/>
	<path fill="#FFFFFF" d="M153,115.9h2.6v3.4l-0.1,2.5c0.8-1.1,1.8-1.4,2.8-1.4c1.7,0,2.6,1.2,2.6,3.5v11h-2.6V124
		c0-1.3-0.4-1.7-1.2-1.7c-0.5,0-1.1,0.4-1.5,1v11.6H153V115.9z"/>
	<path fill="#FFFFFF" d="M171.4,117.1h2.7c2.4,0,5.6,0.3,5.6,4v0.9c0,1.9-1.2,3.2-2.4,3.5v0.1c1.8,0.3,2.7,1.7,2.7,3.9v0.9
		c0,3.9-2.7,4.6-5.8,4.6h-2.8V117.1z M174.6,124.7c1.5,0,2.4-0.7,2.4-2.3v-0.7c0-1.7-0.6-2.6-2.4-2.6h-0.5v5.7H174.6z M174.8,133.1
		c1.4,0,2.4-0.8,2.4-2.4v-1.4c0-1.7-0.6-2.6-2.4-2.6h-0.8v6.4H174.8z"/>
	<path fill="#FFFFFF" d="M183.3,129v-2.7c0-5.5,2.6-6,4.2-6c1.9,0,3.6,1,3.6,4.5c0,1.2-0.1,2.4-0.3,3.4h-4.8v1.5
		c0,2.5,0.3,3.4,1.5,3.4c0.6,0,1.3-0.5,1.3-2v-0.4h2.2v0.6c0,2.7-1.3,3.9-3.8,3.9C184.7,135.1,183.3,133.3,183.3,129z M188.6,126.5
		c0-0.3,0-1.1,0-1.5c0-1.9-0.4-2.7-1.3-2.7c-0.9,0-1.4,0.8-1.4,3.3v0.9H188.6z"/>
	<path fill="#FFFFFF" d="M194.8,120.5h2l0.2,1.5v0c0.8-1.3,2-1.7,3-1.7c1.7,0,2.6,1.2,2.6,3.5v11h-2.6V124c0-1.3-0.4-1.7-1.1-1.7
		c-0.5,0-1.1,0.4-1.5,1v11.6h-2.6V120.5z"/>
	<path fill="#FFFFFF" d="M206.6,129.9v-4.6c0-4.8,2.3-5,3.2-5c1,0,1.8,0.6,2.2,1.2l0,0l-0.1-1.8v-3.8h2.6v19h-2.1l-0.2-1.3
		c-0.5,0.8-1.2,1.5-2.6,1.5C208.7,135.1,206.6,134.8,206.6,129.9z M211.9,132v-8.7c-0.3-0.6-0.7-1.1-1.3-1.1c-0.8,0-1.3,0.4-1.3,2.6
		v5.5c0,2.1,0.6,2.6,1.3,2.6C211.3,133.1,211.7,132.6,211.9,132z"/>
	<path fill="#FFFFFF" d="M242.6,129.1v-6.3c0-5.4,2.7-5.9,4.3-5.9c2.8,0,3.7,1.7,3.7,3.8c0,0.8-0.1,1.4-0.2,2.1h-2.2v-0.9
		c0-2-0.4-2.9-1.3-2.9c-1,0-1.5,0.7-1.5,3v8.2c0,2.2,0.4,2.9,1.5,2.9c0.7,0,1.3-0.6,1.3-2.1v-1.7h2.5v1.7c0,2.9-1.3,4.2-3.8,4.2
		C245.3,135.1,242.6,134.5,242.6,129.1z"/>
	<path fill="#FFFFFF" d="M254.2,115.9h2.6v3.4l-0.1,2.5c0.8-1.1,1.8-1.4,2.8-1.4c1.7,0,2.6,1.2,2.6,3.5v11h-2.6V124
		c0-1.3-0.4-1.7-1.2-1.7c-0.5,0-1.1,0.4-1.5,1v11.6h-2.6V115.9z"/>
	<path fill="#FFFFFF" d="M265.6,131.6c0-2.4,1.2-3.6,3.4-4.7c0.5-0.3,1.3-0.6,1.8-0.8v-1.9c0-1.1-0.1-2-1.2-2
		c-0.8,0-1.5,0.5-1.5,2.2v0.6h-2c-0.1-0.5-0.2-1-0.2-1.4c0-2.1,1.6-3.3,3.8-3.3c2.9,0,3.7,1.2,3.7,3.8v10.8h-2l-0.2-1.2
		c-0.6,0.8-1.6,1.4-2.8,1.4C266.6,135.1,265.6,133.6,265.6,131.6z M270.7,132.5V128c-0.3,0.1-0.6,0.3-1,0.5
		c-0.7,0.5-1.5,1.4-1.5,2.8c0,1.1,0.4,1.8,1.4,1.8C270,133.1,270.5,132.8,270.7,132.5z"/>
	<path fill="#FFFFFF" d="M277.5,120.5h1.9l0.2,1.5c0.6-1.1,1.4-1.6,2.2-1.6c1.5,0,2.2,0.9,2.2,2.8c0,0.5-0.2,1.4-0.4,2h-1.8v-1.3
		c0-1.2-0.3-1.5-0.7-1.5c-0.4,0-0.8,0.3-1,0.8v11.9h-2.6V120.5z"/>
	<path fill="#FFFFFF" d="M287.3,115.9h2.6v19h-2.6V115.9z"/>
	<path fill="#FFFFFF" d="M293.8,129v-2.7c0-5.5,2.6-6,4.2-6c1.9,0,3.6,1,3.6,4.5c0,1.2-0.1,2.4-0.3,3.4h-4.8v1.5
		c0,2.5,0.3,3.4,1.5,3.4c0.6,0,1.3-0.5,1.3-2v-0.4h2.2v0.6c0,2.7-1.3,3.9-3.8,3.9C295.2,135.1,293.8,133.3,293.8,129z M299.1,126.5
		c0-0.3,0-1.1,0-1.5c0-1.9-0.4-2.7-1.3-2.7c-0.9,0-1.4,0.8-1.4,3.3v0.9H299.1z"/>
	<path fill="#FFFFFF" d="M305,130.3h1.9c0,2.1,0.4,2.7,1.5,2.7c0.8,0,1.1-0.5,1.1-1.1c0-0.6-0.3-1.1-0.9-1.8l-1.9-2.3
		c-1-1.3-1.9-2.6-1.9-4.2c0-2.2,1.7-3.3,3.5-3.3c2.1,0,3.4,1,3.4,3c0,0.7-0.1,1.3-0.3,1.8h-1.8c0-1.9-0.2-2.8-1.3-2.8
		c-0.9,0-1.2,0.6-1.2,1.2c0,0.7,0.3,1.2,0.9,1.9l2.1,2.5c0.6,0.8,1.8,2.2,1.8,3.8c0,2-1.3,3.4-3.7,3.4c-1.9,0-3.5-0.8-3.5-3.2
		C304.7,131.3,304.9,130.7,305,130.3z"/>
	<path fill="#FFFFFF" d="M315.8,122.4h-1.1v-1.9h1.3l0.5-3.7h1.9v3.7h2.3v1.9h-2.3v9.2c0,1.3,0.5,1.5,1.1,1.5c0.5,0,0.9-0.1,1.3-0.4
		v1.5c-0.6,0.7-1.5,0.9-2.2,0.9c-1.5,0-2.8-0.6-2.8-3.8V122.4z"/>
	<path fill="#FFFFFF" d="M323.6,128.8v-2.3c0-5.6,2.2-6.1,4-6.1c1.7,0,4,0.5,4,6.1v2.3c0,5.6-2.3,6.3-4,6.3
		C325.8,135.1,323.6,134.5,323.6,128.8z M328.9,129.5v-3.5c0-2.7-0.3-3.6-1.3-3.6c-1,0-1.4,0.9-1.4,3.6v3.5c0,2.7,0.4,3.6,1.4,3.6
		C328.6,133.1,328.9,132.2,328.9,129.5z"/>
	<path fill="#FFFFFF" d="M335.4,120.5h2l0.2,1.5v0c0.8-1.3,2-1.7,3-1.7c1.7,0,2.6,1.2,2.6,3.5v11h-2.6V124c0-1.3-0.4-1.7-1.2-1.7
		c-0.5,0-1.1,0.4-1.5,1v11.6h-2.6V120.5z"/>
	<path fill-rule="evenodd" clip-rule="evenodd" fill="#FFFFFF" d="M330.4,32c0,0-0.1,0-0.1,0.1C330.3,32,330.4,32,330.4,32L330.4,32
		z"/>
	<path fill="#FFFFFF" d="M12.3,73.3h8.4l11.8,34.5h-9.9l-1.8-6.3H10.2l-1.7,6.3H0.9L12.3,73.3z M11.2,95.6h8.6l-4.5-14.1L11.2,95.6z
		"/>
	<path fill="#FFFFFF" d="M50.1,77.4H57v30.3h-6.9V104c-0.9,2-3.5,4.2-7,4.2c-4.9,0-9-3.8-9-11.6c0-8.3,4.2-11.6,9-11.6
		c3.7,0,6.1,2.1,7,3.8V77.4z M41.5,96.6c0,3.7,1.5,6,4.3,6c2.7,0,4.3-2.4,4.3-6c0-3.8-1.6-6.2-4.3-6.2C43,90.4,41.5,92.9,41.5,96.6z
		"/>
	<path fill="#FFFFFF" d="M59.5,85.4h7.8l4.7,14l4.6-14h6.3l-8.6,22.3h-6.1L59.5,85.4z"/>
	<path fill="#FFFFFF" d="M102.6,100.5l1.3,5.1c-1.9,1.4-5,2.6-8.9,2.6c-6.8,0-11.4-3.8-11.4-11.1c0-8.6,5-12.1,11.1-12.1
		c5.9,0,9.7,3.4,9.7,10.2c0,0.8-0.1,1.9-0.3,2.7H90.8c0,3.6,1.8,5.4,4.9,5.4C98.6,103.2,101.3,101.9,102.6,100.5z M90.6,94h8
		c0.2-2.4-0.9-4.8-3.8-4.8C92.3,89.2,90.6,91.4,90.6,94z"/>
	<path fill="#FFFFFF" d="M122.6,107.7V96c0-4.1-1.5-5.5-3.8-5.5c-2,0-3.9,1.4-3.9,5.5v11.7h-7V85.4h7V89c0.6-1.5,2.7-4.1,6.7-4.1
		c4.6,0,8,2.2,8,10.3v12.5H122.6z"/>
	<path fill="#FFFFFF" d="M142.3,99.6c0,1.6,0.5,2.7,2.1,2.7c1.6,0,3.2-1.3,3.8-2v6.3c-1.5,1-4,1.6-5.9,1.6c-5,0-7-2.7-7-7.5V90h-3.5
		v-4.6c4.3,0,6.2-0.4,6.3-6.9h4.2v6.9h6.1V90h-6.1V99.6z"/>
	<path fill="#FFFFFF" d="M158.3,85.4v11.9c0,4.2,1.4,5.3,3.7,5.3c2.1,0,4-1.3,4-5.3V85.4h7v22.3h-7v-3.6c-0.7,1.7-2.8,4-6.7,4
		c-4.5,0-7.9-2-7.9-10.1V85.4H158.3z"/>
	<path fill="#FFFFFF" d="M177.6,85.4h7v4.2c1.2-3.2,3.4-4.6,7.8-4.6l0,6.7c-0.8-0.4-2.4-0.7-3.3-0.7c-3.4,0-4.5,2.5-4.5,6.3v10.4h-7
		V85.4z"/>
	<path fill="#FFFFFF" d="M212.7,100.5l1.3,5.1c-1.9,1.4-5,2.6-8.9,2.6c-6.8,0-11.4-3.8-11.4-11.1c0-8.6,5-12.1,11.1-12.1
		c5.9,0,9.7,3.4,9.7,10.2c0,0.8-0.1,1.9-0.3,2.7h-13.3c0,3.6,1.8,5.4,4.9,5.4C208.6,103.2,211.3,101.9,212.7,100.5z M200.6,94h8
		c0.2-2.4-0.9-4.8-3.8-4.8C202.4,89.2,200.7,91.4,200.6,94z"/>
	<path fill="#FFFFFF" d="M254.8,77.6l-3.4,6.8c-2.3-3.1-5.3-4.6-8.1-4.6c-5.7,0-8.6,4.6-8.6,10.8c0,5.9,3,10.7,8.7,10.7
		c2.9,0,5.8-1.6,8-4.6l3.4,6.8c-3.3,3.1-7.5,4.8-12.5,4.8c-10.4,0-16.2-7.9-16.2-17.7c0-10,5.8-17.8,16.2-17.8
		C247.2,72.7,251.6,74.4,254.8,77.6z"/>
	<path fill="#FFFFFF" d="M256.8,96.6c0-6.9,4.1-11.7,11.5-11.7c7.3,0,11.4,4.8,11.4,11.7c0,6.8-4.1,11.6-11.4,11.6
		C260.9,108.2,256.8,103.4,256.8,96.6z M272.4,96.6c0-3.7-1.5-6.1-4.2-6.1c-2.8,0-4.3,2.4-4.3,6.1c0,3.6,1.5,6.1,4.3,6.1
		C270.9,102.7,272.4,100.2,272.4,96.6z"/>
	<path fill="#FFFFFF" d="M283.3,87.9c2.1-1.3,5.7-3,10.3-3c6.2,0,8.3,3.1,8.3,8.5v7.6c0,1,0.3,1.6,1,1.6c0.7,0,1.6-0.5,1.6-0.5
		l-0.2,5.2c0,0-2.2,0.9-4.7,0.9c-2.8,0-3.9-1.2-4.2-3.6c-1,1.2-3.4,3.6-7.3,3.6c-3.7,0-6.3-2.2-6.3-6c0-4,2.9-5.6,7.4-6.7l3.9-1
		c1.5-0.4,2.1-0.8,2.1-1.9c0-1.7-1-2.4-2.7-2.4c-2.7,0-6,1.5-8.2,3.5L283.3,87.9z M290.9,103.4c1.3,0,2.9-0.9,4.1-2.4v-4.2
		c-0.3,0.4-0.9,0.6-1.6,0.8l-2.1,0.6c-1.9,0.6-2.7,1.3-2.7,2.9C288.7,102.6,289.5,103.4,290.9,103.4z"/>
	<path fill="#FFFFFF" d="M318.1,101.9c0-1-0.7-1.8-2.7-2.3l-3-0.8c-4.4-1-5.9-3.5-5.9-6.5c0-3.3,1.8-7.4,8.8-7.4c3.5,0,7,1,9.2,2.4
		l-1.3,4.5c-1.7-1.6-4.9-3-7.1-3c-1.9,0-2.8,1.1-2.8,2.4c0,1,0.5,1.7,2.5,2.1l3,0.8c4.4,1,6.8,2.9,6.8,6.6c0,4.2-3.4,7.5-9.8,7.5
		c-4.3,0-7.4-1.3-9.6-3.1l1.5-4.5c1.7,1.7,4.8,3.6,7.4,3.6C316.9,104.2,318.1,103.4,318.1,101.9z"/>
	<path fill="#FFFFFF" d="M337.4,99.6c0,1.6,0.5,2.7,2.1,2.7c1.6,0,3.2-1.3,3.8-2v6.3c-1.5,1-4,1.6-5.9,1.6c-5,0-7-2.7-7-7.5V90h-3.5
		v-4.6c4.3,0,6.2-0.4,6.3-6.9h4.2v6.9h6.1V90h-6.1V99.6z"/>
	<path fill="#FFFFFF" d="M107.2,128c0,0-1.1,3.6-5.5,3.9c-4.4,0.3-7.2-6.1-10.9-6.7c-2.9-0.5-5.4,1.9-5.4,1.9s1.8-4.2,6.1-3.5
		c4.4,0.7,6.8,6.4,10.1,6.8C104.8,130.9,107.2,128,107.2,128z"/>
	<path fill="#FFFFFF" d="M92.6,122.9c0,0,1.9-0.1,3.6,1.4c2,1.7,3,3.5,4.7,3.5c1.7,0,1.9-0.8,1.9-0.8s-1.4,0.6-2.5-0.2
		c-1.1-0.8-2-2.5-3.8-3.7C94.4,121.7,92.6,122.9,92.6,122.9z"/>
	<path fill="#FFFFFF" d="M93.2,128.3c0,0-1.1-1.5-2.8-1.6c-3-0.3-3.3,2-3.3,2s0.6-1,2.9-1.1C92.1,127.5,93.2,128.3,93.2,128.3z"/>
	<path fill="#FFFFFF" d="M240.1,128c0,0-1.1,3.6-5.5,3.9c-4.4,0.3-7.2-6.1-10.9-6.7c-2.9-0.5-5.4,1.9-5.4,1.9s1.8-4.2,6.1-3.5
		c4.4,0.7,6.8,6.4,10.1,6.8C237.7,130.9,240.1,128,240.1,128z"/>
	<path fill="#FFFFFF" d="M225.5,122.9c0,0,1.9-0.1,3.6,1.4c2,1.7,3,3.5,4.7,3.5c1.7,0,1.9-0.8,1.9-0.8s-1.4,0.6-2.5-0.2
		c-1.1-0.8-2-2.5-3.8-3.7C227.3,121.7,225.5,122.9,225.5,122.9z"/>
	<path fill="#FFFFFF" d="M226.1,128.3c0,0-1.1-1.5-2.8-1.6c-3-0.3-3.3,2-3.3,2s0.6-1,2.9-1.1C225,127.5,226.1,128.3,226.1,128.3z"/>
</g>
</svg>
