<?xml version="1.0" encoding="UTF-8"?>
<svg id="Layer_1" data-name="Layer 1" xmlns="http://www.w3.org/2000/svg" version="1.1" viewBox="0 0 39 44">
  <defs>
    <style>
      .cls-1 {
        fill: #afafaf;
      }

      .cls-1, .cls-2, .cls-3 {
        stroke-width: 0px;
      }

      .cls-2 {
        fill: #646464;
      }

      .cls-3 {
        fill: #d84029;
      }
    </style>
  </defs>
  <path class="cls-3" d="M32.7,4.5h-.2v1.8c.9.7,1.5,1.9,1.5,3.1,0,2.2-1.8,4-4,4s-4-1.8-4-4,.6-2.4,1.5-3.1v-1.8H11.1v1.8c.9.7,1.5,1.9,1.5,3.1,0,2.2-1.8,4-4,4s-4-1.8-4-4,.6-2.4,1.5-3.1v-1.8c-3.4,0-6.1,2.9-6.1,6.2v4.2h39v-4.2c0-3.5-2.8-6.3-6.3-6.3Z"/>
  <path class="cls-1" d="M12.9,29.1c0,1.4-1.2,2.5-2.5,2.5s-2.5-1.2-2.5-2.5,1.1-2.5,2.5-2.5,2.5,1.1,2.5,2.5Z"/>
  <path class="cls-1" d="M24.3,35.7c0-1.4,1.1-2.5,2.5-2.5s2.5,1.1,2.5,2.5-1.1,2.5-2.5,2.5-2.5-1.1-2.5-2.5Z"/>
  <path class="cls-1" d="M24.3,22.4c0-1.4,1.1-2.5,2.5-2.5s2.5,1.1,2.5,2.5-1.1,2.6-2.5,2.6-2.5-1.2-2.5-2.6Z"/>
  <path class="cls-1" d="M0,15v22.8c0,3.4,2.8,6.2,6.3,6.2h26.5c3.4,0,6.3-2.8,6.3-6.2V15H0ZM14.4,29.1c0,.2,0,.5,0,.7l9.3,3.5c.7-1,1.9-1.6,3.2-1.6,2.2,0,4.1,1.8,4.1,4.1s-1.8,4.1-4.1,4.1-4.1-1.8-4.1-4.1,0-.7.2-1.1l-9.2-3.5c-.7,1.2-2,2-3.5,2-2.2,0-4.1-1.8-4.1-4.1s1.8-4.1,4.1-4.1,2.8.8,3.5,2l9.2-3.5c0-.3-.2-.7-.2-1.1,0-2.2,1.8-4.1,4.1-4.1s4.1,1.8,4.1,4.1-1.8,4.1-4.1,4.1-2.5-.6-3.2-1.6l-9.3,3.6c0,.2,0,.4,0,.7Z"/>
  <path class="cls-1" d="M.1,39c.2,1,.7,1.9,1.3,2.7-.6-.8-1.1-1.7-1.3-2.7Z"/>
  <path class="cls-1" d="M1.8,42.1c.7.7,1.6,1.2,2.6,1.6-1-.3-1.9-.8-2.6-1.6Z"/>
  <path class="cls-1" d="M34.6,43.7c1-.3,1.9-.8,2.6-1.6-.7.7-1.6,1.2-2.6,1.6Z"/>
  <path class="cls-1" d="M38.9,39c-.2,1-.7,2-1.3,2.7.6-.8,1.1-1.7,1.3-2.7Z"/>
  <rect class="cls-2" x="6.1" width="5" height="12" rx="2.5" ry="2.5"/>
  <rect class="cls-2" x="27.6" width="5" height="12" rx="2.5" ry="2.5"/>
</svg>